<svg width="647" height="494" viewBox="0 0 647 494" fill="none" xmlns="http://www.w3.org/2000/svg">
<path d="M635.228 338.527C631.743 337.8 624.344 336.421 616.156 336.013C607.386 335.578 597.701 336.249 590.937 339.998C584.084 343.793 580.769 349.783 574.06 354.866C570.955 357.227 567.124 359.386 561.877 361.058C557.194 362.548 552.98 363.047 548.868 363.292C537.884 363.955 527.672 362.829 511.413 374.076C509.788 375.202 507.828 376.273 505.64 377.272C505.032 377.563 504.396 377.835 503.75 378.107C503.714 378.126 503.678 378.143 503.651 378.152C488.455 384.569 464.933 388.373 464.933 388.373L343.906 199.425L610.752 297.666L636.161 337.163C636.59 337.839 636.008 338.701 635.228 338.527Z" fill="#00C1F0"/>
<g opacity="0.2">
<path opacity="0.2" d="M635.228 338.527C631.743 337.8 624.344 336.421 616.156 336.013C607.386 335.578 597.701 336.249 590.937 339.998C584.084 343.793 580.769 349.783 574.06 354.866C570.955 357.227 567.124 359.386 561.877 361.058C557.194 362.548 552.98 363.047 548.868 363.292C537.884 363.955 527.672 362.829 511.413 374.076C509.788 375.202 507.828 376.273 505.64 377.272C505.032 377.563 504.396 377.835 503.75 378.107C503.714 378.126 503.678 378.143 503.651 378.152C488.455 384.569 464.933 388.373 464.933 388.373L343.906 199.425L610.752 297.666L636.161 337.163C636.59 337.839 636.008 338.701 635.228 338.527Z" fill="#00C1F0"/>
</g>
<g opacity="0.35">
<path opacity="0.35" d="M616.154 336.013C607.384 335.578 597.698 336.249 590.935 339.998C584.081 343.793 580.766 349.783 574.058 354.866C576.119 350.172 578.098 342.112 571.916 335.367C560.26 322.649 536.184 314.088 536.348 311.873C536.868 304.92 587.496 325.892 616.154 336.013Z" fill="#00C1F0"/>
</g>
<g opacity="0.35">
<path opacity="0.35" d="M548.868 363.292C537.884 363.955 527.671 362.829 511.413 374.076C509.788 375.202 507.828 376.273 505.64 377.272C504.96 377.536 504.324 377.808 503.75 378.107C503.714 378.126 503.678 378.143 503.651 378.152C506.456 373.857 514.654 370.009 510.223 356.736C504.768 340.37 480.384 322.685 480.911 320.533C482.328 314.717 521.082 345.219 548.868 363.292Z" fill="#00C1F0"/>
</g>
<path d="M463.159 392.34L335.02 192.283L613.149 294.676L639.214 335.199C640.207 336.742 640.177 338.714 639.138 340.223C638.101 341.729 636.271 342.458 634.482 342.084C620.527 339.145 602.223 337.89 592.696 343.172C589.271 345.07 586.831 347.616 584.007 350.565C579.309 355.468 573.986 361.027 562.976 364.522C556.25 366.658 550.473 366.889 544.884 367.11C535.596 367.48 526.821 367.831 513.477 377.066C500.166 386.278 466.92 391.733 465.511 391.96L463.159 392.34ZM352.791 206.565L466.686 384.384C474.419 382.984 499.254 378.075 509.341 371.095C524.422 360.659 534.675 360.251 544.591 359.856C549.935 359.643 554.982 359.441 560.775 357.601C570.018 354.664 574.264 350.234 578.761 345.542C581.723 342.45 584.785 339.254 589.173 336.821C600.506 330.537 618.402 331.986 629.684 333.81L608.355 300.651L352.791 206.565ZM633.101 339.12C633.103 339.122 633.105 339.126 633.107 339.131L633.101 339.12Z" fill="#00C1F0"/>
<path d="M378.65 218.165C378.65 218.165 523.183 266.849 637.342 339.005C637.342 339.005 655.675 307.919 628.269 281.492C628.269 281.492 575.905 276.11 501.757 246.356C429.767 217.466 373.803 184.486 373.803 184.486L378.65 218.165Z" fill="#00C1F0"/>
<g opacity="0.35">
<path opacity="0.35" d="M639.112 335.369C639.212 334.959 639.31 334.543 639.404 334.116C644.187 312.373 629.644 291.044 607.752 287C586.398 283.054 547.328 274.014 499.003 254.622C438.762 230.437 389.74 203.403 375.344 195.224L373.801 184.484C373.801 184.484 429.767 217.464 501.764 246.36C575.902 276.108 628.273 281.492 628.273 281.492C650.043 302.479 642.952 326.408 639.112 335.369Z" fill="#00C1F0"/>
</g>
<path d="M637.022 342.265C636.172 342.265 635.33 342.027 634.599 341.566C522.257 270.755 378.926 222.088 377.492 221.606L375.375 220.892L369.136 177.519L375.65 181.356C376.206 181.686 432.225 214.536 503.113 242.983C575.856 272.174 628.124 277.825 628.643 277.878L629.888 278.007L630.791 278.876C657.336 304.474 643.977 334.139 641.029 339.826C640.447 340.947 639.416 341.778 638.201 342.108C637.814 342.214 637.417 342.265 637.022 342.265ZM381.929 215.452C400.087 221.748 530.698 268.09 635.849 333.776C639.372 325.48 645.583 304.041 626.609 284.952C618.047 283.885 567.817 276.775 500.408 249.726C443.02 226.695 395.291 200.789 378.459 191.327L381.929 215.452Z" fill="#00C1F0"/>
<path d="M285.858 345.95C293.519 374.818 301.36 388.428 301.36 388.428C301.36 388.428 314.052 416.204 341.195 429.961C358.654 438.812 380.909 436.997 380.909 436.997C380.909 436.997 392.286 473.162 407.452 480.487C422.618 487.812 448.069 477.684 443.987 451.169C441.269 433.523 430.164 407.243 422.773 398.722C413.523 388.061 375.386 344.08 370.807 327.022" fill="#00C1F0"/>
<g opacity="0.35">
<path opacity="0.35" d="M285.858 345.95C293.519 374.818 301.36 388.428 301.36 388.428C301.36 388.428 314.052 416.204 341.195 429.961C358.654 438.812 380.909 436.997 380.909 436.997C380.909 436.997 392.286 473.162 407.452 480.487C422.618 487.812 448.069 477.684 443.987 451.169C441.269 433.523 430.164 407.243 422.773 398.722C413.523 388.061 375.386 344.08 370.807 327.022" fill="#00C1F0"/>
</g>
<path d="M418.079 486.45C413.823 486.45 409.624 485.566 405.873 483.753C391.731 476.924 381.453 449.879 378.327 440.754C371.542 440.935 354.138 440.59 339.554 433.198C312.35 419.406 299.307 392.602 298.13 390.086C297.199 388.426 289.708 374.607 282.35 346.878C281.835 344.94 282.989 342.951 284.927 342.437C286.863 341.923 288.854 343.077 289.368 345.015C296.785 372.958 304.432 386.482 304.509 386.614L304.664 386.913C304.785 387.177 317.208 413.724 342.837 426.716C359.191 435.006 380.401 433.387 380.613 433.372L383.501 433.136L384.373 435.901C387.411 445.546 397.764 471.771 409.031 477.21C416.035 480.593 425.589 479.508 432.264 474.571C439.01 469.582 441.898 461.464 440.396 451.715C437.708 434.254 426.766 408.862 420.028 401.095C388.223 364.431 370.481 339.825 367.298 327.957C366.778 326.021 367.927 324.028 369.865 323.51C371.803 322.991 373.794 324.139 374.313 326.077C375.943 332.152 384.764 349.36 425.515 396.338C433.768 405.851 444.901 433.24 447.576 450.612C450.184 467.54 441.807 476.55 436.584 480.413C431.209 484.389 424.577 486.45 418.079 486.45Z" fill="#00C1F0"/>
<path d="M289.57 209.16L117.737 42.9534C117.737 42.9534 92.9575 8.95776 61.3334 33.8542C30.2915 58.2895 47.2808 82.8735 58.1799 94.4313L219.152 225.261C219.152 225.261 232.036 338.635 299.951 379.021C346.104 406.465 390.748 384.457 390.748 384.457C390.748 384.457 403.44 412.232 430.583 425.99C448.042 434.84 470.297 433.025 470.297 433.025C470.297 433.025 481.674 469.191 496.84 476.516C512.006 483.84 537.457 473.713 533.375 447.197C530.657 429.551 519.552 403.271 512.161 394.75C502.911 384.089 464.774 340.108 460.194 323.051C435.421 230.75 366.597 189.699 366.597 189.699L289.57 209.16Z" fill="#00C1F0"/>
<path d="M533.808 452.501C533.953 475.041 510.941 483.33 496.834 476.511C481.674 469.195 470.29 433.028 470.29 433.028C470.29 433.028 448.04 434.842 430.583 425.992C403.44 412.23 390.748 384.461 390.748 384.461C390.748 384.461 346.101 406.465 299.951 379.023C299.26 378.615 298.572 378.188 297.89 377.761C253.626 350.028 233.345 291.093 224.767 255.164C220.527 237.407 219.148 225.261 219.148 225.261L195.1 205.715L171.833 186.805L58.1777 94.4271C58.0226 94.2635 57.8696 94.0998 57.7145 93.9277C46.8026 82.1808 30.725 57.9431 61.327 33.8499C92.9554 8.94928 117.737 42.947 117.737 42.947L175.227 98.5581L289.564 209.155L366.591 189.701C366.591 189.701 375.35 194.931 387.743 205.843C391.591 209.228 395.794 213.167 400.189 217.67C417.582 235.463 438.052 262.061 452.105 298.309C455.118 306.108 457.851 314.351 460.184 323.047C464.767 340.104 502.905 384.087 512.155 394.744C519.543 403.267 530.655 429.549 533.371 447.197C533.664 449.042 533.8 450.814 533.808 452.501Z" fill="#00C1F0"/>
<g opacity="0.35">
<path opacity="0.35" d="M533.808 452.501C533.953 475.041 510.941 483.33 496.834 476.511C481.674 469.195 470.29 433.028 470.29 433.028C470.29 433.028 448.039 434.842 430.583 425.992C403.44 412.23 390.748 384.461 390.748 384.461C390.748 384.461 346.101 406.465 299.951 379.023C299.26 378.615 298.572 378.188 297.89 377.761C313.413 381.42 336.352 384.714 356.442 379.168C390.684 369.726 390.684 358.506 403.665 360.576C416.655 362.637 404.473 388.501 433.632 408.835C465.069 430.767 496.024 410.405 501.071 415.771C506.128 421.136 485.539 430.278 487.79 450.013C489.772 467.308 525.102 476.531 533.808 452.501Z" fill="#00C1F0"/>
</g>
<g opacity="0.35">
<path opacity="0.35" d="M195.102 205.717L58.1799 94.4313C58.0247 94.2677 57.8717 94.1041 57.7166 93.932L86.0406 53.7802C86.0406 53.7802 104.46 125.713 137.939 137.516C164.593 146.91 168.223 101.512 168.223 101.512L195.102 205.717Z" fill="#00C1F0"/>
</g>
<path d="M507.465 482.483C503.209 482.483 499.01 481.599 495.259 479.786C481.117 472.956 470.839 445.912 467.713 436.787C460.932 436.978 443.526 436.623 428.94 429.23C406.203 417.704 393.357 397.086 389.065 389.157C377.647 393.777 338.696 406.287 298.096 382.145C262.075 360.725 241.541 319.234 230.657 288.201C220.321 258.729 216.562 233.491 215.731 227.163L55.7042 97.1003L55.5385 96.9261C44.582 85.3066 39.2377 73.107 40.0877 61.6448C40.9058 50.5948 47.2999 40.2844 59.0893 31.0046C68.9812 23.2165 79.3065 20.0035 89.7742 21.4442C107.146 23.8391 118.763 38.3039 120.472 40.5479L290.643 205.148L367.164 185.817L368.456 186.588C369.177 187.017 386.342 197.368 406.762 219.294C425.566 239.485 450.708 273.715 463.701 322.116C465.333 328.195 474.154 345.406 514.902 392.377C523.156 401.89 534.289 429.279 536.964 446.651C539.569 463.579 531.195 472.589 525.971 476.452C520.595 480.419 513.963 482.483 507.465 482.483ZM472.885 429.177L473.756 431.938C476.795 441.583 487.15 467.807 498.415 473.247C505.419 476.63 514.973 475.545 521.647 470.608C528.394 465.619 531.282 457.501 529.782 447.75C527.093 430.289 516.152 404.897 509.414 397.13C477.611 360.472 459.869 335.865 456.682 323.992C434.418 241.045 375.275 199.68 365.966 193.603L288.497 213.174L114.987 45.344L114.802 45.0911C114.7 44.953 104.092 30.7198 88.7309 28.6288C80.3095 27.4792 71.8436 30.1992 63.5773 36.708C53.456 44.6767 47.9884 53.2468 47.3254 62.1782C46.4563 73.9251 54.0531 84.7222 60.6555 91.7687L222.588 223.38L222.756 224.853C222.884 225.968 236.244 336.919 301.804 375.904C345.632 401.965 388.714 381.412 389.143 381.201L392.492 379.561L394.046 382.95C394.167 383.214 406.589 409.761 432.219 422.753C448.52 431.015 469.785 429.426 469.997 429.407L472.885 429.177Z" fill="#00C1F0"/>
<path d="M371.903 341.124C372.012 349.911 367.436 358.236 360.056 361.158C341.565 368.494 310.472 376.981 277.12 369.51C269.368 367.776 262.349 362.928 257.258 355.657C251.093 346.851 242.861 332.407 236.269 311.31C233.872 303.631 238.983 295.56 245.747 296.286C262.496 298.101 293.57 297.893 336.118 282.497C344.389 279.501 353.203 284.448 356.607 294.045L365.178 318.174L370.516 333.217C371.431 335.805 371.886 338.482 371.903 341.124Z" fill="#00C1F0"/>
<g opacity="0.35">
<path opacity="0.35" d="M371.903 341.124C372.012 349.911 367.436 358.236 360.056 361.158C341.565 368.494 310.472 376.981 277.12 369.509C269.368 367.775 262.349 362.928 257.258 355.657C256.886 355.13 256.514 354.586 256.131 354.014C258.856 355.604 261.769 356.755 264.793 357.427C298.155 364.898 329.246 356.411 347.738 349.076C350.923 347.813 353.584 345.544 355.581 342.675C352.096 341.776 349.017 338.763 347.729 334.677L347.485 333.905C345.37 327.224 348.811 320.516 354.701 319.797C355.664 319.678 356.627 319.553 357.589 319.417L344.308 282.015C349.646 283.294 354.34 287.634 356.61 294.042L365.18 318.172L370.518 333.215C370.637 333.542 370.737 333.858 370.836 334.186C370.917 334.449 371 334.713 371.064 334.976C371.219 335.512 371.336 336.056 371.444 336.591C371.489 336.819 371.536 337.054 371.572 337.29C371.627 337.571 371.663 337.853 371.699 338.145C371.744 338.472 371.782 338.808 371.808 339.135C371.844 339.471 371.863 339.798 371.88 340.134C371.895 340.461 371.903 340.797 371.903 341.124Z" fill="#00C1F0"/>
</g>
<path d="M303.98 376.063C295.078 376.063 285.798 375.177 276.327 373.054C267.672 371.116 259.844 365.676 254.287 357.735C248.256 349.12 239.635 334.26 232.81 312.396C231.163 307.12 232.223 301.306 235.579 297.224C238.307 293.904 242.157 292.251 246.138 292.678C264.113 294.625 294.105 293.843 334.888 279.083C339.429 277.438 344.353 277.678 348.751 279.754C353.896 282.185 357.904 286.826 360.033 292.825L373.941 332.003C378.59 345.1 372.847 359.998 361.399 364.537C346.845 370.311 326.645 376.063 303.98 376.063ZM244.901 299.876C243.084 299.876 241.809 301.078 241.186 301.837C239.395 304.017 238.828 307.313 239.739 310.233C246.288 331.209 254.499 345.378 260.235 353.572C264.75 360.023 271.03 364.426 277.913 365.969C309.698 373.09 339.401 365.451 358.722 357.788C366.504 354.703 370.416 343.791 367.096 334.436L353.188 295.258C351.709 291.095 349.032 287.92 345.649 286.322C342.974 285.06 340.107 284.918 337.359 285.912C295.267 301.144 264.094 301.924 245.356 299.899C245.2 299.882 245.047 299.876 244.901 299.876Z" fill="#00C1F0"/>
<g opacity="0.35">
<path opacity="0.35" d="M445.436 289.378C428.783 297.787 390.495 315.437 354.706 319.8C348.809 320.518 345.368 327.222 347.485 333.907L347.729 334.683C349.382 339.898 353.93 343.366 358.548 342.911C395.886 339.235 438.292 323.057 456.172 315.652C460.959 313.669 463.019 307.37 460.736 301.69L458.286 295.585C455.974 289.827 450.137 287.002 445.436 289.378Z" fill="#00C1F0"/>
</g>
<path d="M446.344 280.3C429.69 288.709 391.402 306.359 355.613 310.722C349.716 311.44 346.276 318.144 348.392 324.829L348.637 325.605C350.29 330.82 354.837 334.288 359.455 333.833C396.793 330.157 439.199 313.979 457.079 306.574C461.867 304.591 463.926 298.292 461.644 292.612L459.194 286.507C456.882 280.748 451.044 277.924 446.344 280.3Z" fill="#00C1F0"/>
<path d="M358.652 337.503C352.759 337.503 347.213 333.127 345.177 326.702L344.931 325.926C343.488 321.368 344.051 316.427 346.437 312.713C348.475 309.542 351.578 307.555 355.171 307.115C390.873 302.761 429.677 284.644 444.705 277.057C447.634 275.578 450.995 275.425 454.17 276.622C457.891 278.024 460.949 281.133 462.562 285.152L465.014 291.257C468.044 298.802 465.107 307.177 458.469 309.927C441.514 316.95 397.958 333.691 359.812 337.445C359.425 337.484 359.036 337.503 358.652 337.503ZM447.98 283.541C432.612 291.301 392.89 309.833 356.051 314.326C354.242 314.547 353.146 315.707 352.547 316.64C351.314 318.559 351.055 321.208 351.854 323.733L352.1 324.509C353.22 328.044 356.223 330.503 359.102 330.218C396.279 326.559 439.036 310.116 455.692 303.218C458.62 302.005 459.804 297.768 458.276 293.964L455.823 287.859C454.967 285.725 453.431 284.106 451.607 283.418C450.725 283.084 449.378 282.835 447.98 283.541Z" fill="#00C1F0"/>
<g opacity="0.35">
<path opacity="0.35" d="M348.392 324.823L348.637 325.601C350.294 330.813 354.839 334.286 359.457 333.835C396.795 330.15 439.208 313.975 457.083 306.578C461.869 304.589 463.926 298.297 461.642 292.619L459.189 286.503C459.128 286.339 459.055 286.18 458.985 286.033C458.777 289.846 456.775 293.22 453.507 294.591C435.63 301.988 393.223 318.178 355.881 321.848C352.982 322.137 350.107 320.868 347.967 318.593C347.6 320.535 347.714 322.687 348.392 324.823Z" fill="#00C1F0"/>
</g>
<path d="M50.5703 84.8986C50.5703 84.8986 58.3201 94.6778 69.3573 92.98C87.7024 90.158 113.253 70.5315 107.998 56.7191C103.636 45.2526 91.1172 45.2314 95.5521 36.2788" fill="#00C1F0"/>
<g opacity="0.35">
<path opacity="0.35" d="M69.3552 92.98C58.3159 94.6778 50.5724 84.9007 50.5724 84.9007L50.5915 84.8816C53.5516 86.3351 57.1917 87.2786 61.2845 86.6517C79.6317 83.8276 105.185 64.2118 99.9296 50.3951C98.0596 45.4758 94.683 42.6601 91.7866 40.346L95.5542 36.2788C91.1151 45.2377 103.633 45.2569 108 56.7233C113.255 70.5294 87.7024 90.1559 69.3552 92.98Z" fill="#00C1F0"/>
</g>
<path d="M53.4156 82.644L53.796 83.0754C53.9448 83.2411 54.1041 83.4069 54.2699 83.5747C54.5886 83.9105 54.9414 84.2335 55.2878 84.5522C55.9932 85.1834 56.7327 85.7826 57.5041 86.316C59.0405 87.3955 60.6874 88.2561 62.3746 88.8043C64.064 89.3568 65.7873 89.5906 67.5001 89.5098L68.7836 89.3951L70.2307 89.1358C71.1997 88.9276 72.1687 88.7045 73.1356 88.4218C77.0094 87.3147 80.8217 85.6551 84.4427 83.6576C88.0615 81.6538 91.521 79.3141 94.6405 76.6536C97.7472 74.0016 100.62 71.0309 102.56 67.7414C103.529 66.1094 104.243 64.4094 104.588 62.8008C104.94 61.1794 104.862 59.7302 104.462 58.4148C104.398 58.1152 104.199 57.6583 104.056 57.2609C103.871 56.8678 103.71 56.4641 103.497 56.0858C103.096 55.3145 102.664 54.5516 102.123 53.8291C101.071 52.3629 99.7426 50.9858 98.2275 49.4877C97.4731 48.7312 96.6359 47.9875 95.8199 47.0822C95.0102 46.1706 94.1071 45.2101 93.4356 43.8416C93.0871 43.1893 92.8342 42.4051 92.6855 41.6316C92.5644 40.8369 92.5835 40.0358 92.7259 39.3069C93.0021 37.8321 93.7119 36.7059 94.4599 35.7518C94.8806 35.2141 95.6562 35.1207 96.1939 35.5414C96.5721 35.8368 96.7315 36.3085 96.6444 36.7505L96.6295 36.827C96.4319 37.8322 96.349 38.799 96.5211 39.5215C96.6954 40.2504 97.0141 40.6966 97.5262 41.196C98.5526 42.199 100.395 43.2466 102.254 44.4982C104.148 45.7307 106.118 47.2692 107.822 49.2072C108.672 50.172 109.462 51.2324 110.13 52.3692C110.474 52.9324 110.761 53.5252 111.06 54.1138C111.32 54.7322 111.606 55.2635 111.819 56.0221C112.771 58.8696 112.724 61.9593 112.017 64.5773C111.324 67.2229 110.149 69.5264 108.829 71.6132C106.156 75.776 102.875 79.1781 99.3431 82.1935C95.805 85.2067 91.98 87.7907 87.9489 90.0241C83.9135 92.2468 79.6593 94.1147 75.1203 95.4152C73.9877 95.7446 72.8274 96.0166 71.6566 96.2652L69.8737 96.5839L67.8911 96.7731C65.237 96.9091 62.5659 96.5266 60.1009 95.7148C57.6295 94.9073 55.3664 93.7024 53.3264 92.2723C52.3 91.5626 51.3374 90.7806 50.413 89.954C49.954 89.5332 49.5014 89.1146 49.0658 88.6598C48.8469 88.4388 48.628 88.2093 48.4113 87.9692C48.1839 87.7206 48.0033 87.5166 47.7143 87.166C46.4457 85.6147 46.6752 83.3304 48.2264 82.0618C49.7415 80.8229 51.9558 81.012 53.2414 82.4676L53.4156 82.644Z" fill="#00C1F0"/>
<path d="M128.351 60.5653C117.737 42.9534 105.633 41.9419 91.4233 49.9744C81.0575 55.8351 75.7748 66.1307 79.1557 72.138C83.2187 79.3609 103.151 67.3738 103.795 67.9454C104.439 68.5171 99.4239 78.2963 102.076 86.8536" fill="#00C1F0"/>
<path d="M127.833 60.8777C126.885 60.0341 125.999 59.1777 125.149 58.315L123.795 57.108C123.356 56.7042 122.943 56.2771 122.489 55.901C120.659 54.422 118.912 52.9451 117.019 51.8953C116.118 51.2791 115.132 50.9136 114.218 50.4333C113.247 50.1146 112.329 49.6832 111.351 49.5175C109.443 49.0224 107.486 48.9246 105.48 49.1605C104.488 49.2136 103.463 49.475 102.452 49.6535C101.436 49.968 100.406 50.1656 99.3792 50.58C97.3222 51.2579 95.2695 52.2502 93.2444 53.283C89.4406 55.3442 86.0045 58.3086 83.8753 61.8616C82.8 63.6062 82.1115 65.5123 81.9394 67.1953C81.9012 68.0155 81.916 68.8039 82.1519 69.3989C82.2029 69.7389 82.4154 69.9599 82.5089 70.2489C82.5684 70.3233 82.5684 70.2872 82.6045 70.3127C82.664 70.3445 83.157 70.5188 83.9518 70.5103C84.7317 70.5167 85.7007 70.3891 86.6994 70.1703C88.7224 69.7474 90.8793 69.0016 93.0425 68.1983C95.2206 67.3844 97.3775 66.4494 99.6703 65.5166C100.255 65.2764 100.82 65.0406 101.53 64.7728C101.717 64.7048 101.906 64.6347 102.18 64.5497L102.401 64.4838L102.73 64.4009C102.858 64.3712 103.121 64.3244 103.31 64.3074C103.563 64.2841 103.835 64.2841 104.097 64.3096C104.141 64.3138 104.39 64.3244 104.906 64.4817C105.323 64.6177 105.729 64.8408 106.06 65.1022C106.377 65.3614 106.426 65.4379 106.606 65.6462C106.755 65.8268 106.889 66.0266 107.006 66.2348C107.235 66.6194 107.399 67.2208 107.39 67.2484C107.454 67.5587 107.488 67.8859 107.488 68.194L107.461 68.5999C107.448 68.7402 107.427 68.8783 107.414 68.9335C107.35 69.2799 107.288 69.4945 107.227 69.7113C106.989 70.4805 106.781 71.033 106.564 71.6132L105.926 73.2728C104.275 77.6163 102.815 81.7473 102.656 86.6836V86.7027C102.645 87.0534 102.352 87.3275 102.001 87.3147C101.793 87.3084 101.61 87.2 101.5 87.0406C99.9785 84.8327 99.239 82.1 98.9904 79.4161C98.7545 76.7195 99.0116 74.0229 99.4961 71.4729L100.248 67.9752C100.259 67.8923 100.265 67.8094 100.248 67.8541C100.25 67.8349 100.238 67.8966 100.229 67.9603C100.223 68.0198 100.219 68.0793 100.221 68.1367C100.212 68.3704 100.238 68.6212 100.295 68.8549L100.384 69.1758C100.448 69.3734 100.533 69.5732 100.639 69.7644C100.746 69.9557 100.871 70.1384 101.009 70.302C101.181 70.4954 101.226 70.5485 101.523 70.8014C101.836 71.0564 102.225 71.271 102.624 71.4007C103.121 71.5494 103.355 71.5558 103.378 71.5622C103.599 71.5877 103.835 71.5877 104.05 71.5643C104.165 71.56 104.352 71.5239 104.405 71.5112L104.511 71.4878L104.513 71.492L104.303 71.5919L102.803 72.3357C100.646 73.4555 98.3486 74.569 95.9665 75.5593C93.5759 76.5538 91.0811 77.4186 88.3016 77.9945C86.9034 78.2623 85.4265 78.462 83.7542 78.4131C82.1179 78.3473 80.0928 78.0413 78.1229 76.66C77.1646 75.9715 76.3231 75.0046 75.7897 74.0059C75.4114 73.1665 74.9801 72.3208 74.8058 71.4453C74.3043 69.69 74.3383 67.9752 74.4998 66.3687C74.9269 63.1748 76.1743 60.4548 77.6533 58.0344C80.7069 53.2383 84.8634 49.5472 89.5278 46.721C91.8121 45.4311 94.1177 44.1391 96.6954 43.2084C97.9406 42.6856 99.3049 42.3286 100.641 41.9653C101.326 41.8101 102.035 41.7039 102.73 41.5764C103.083 41.5211 103.425 41.4425 103.784 41.4106L104.868 41.349C106.302 41.2173 107.777 41.3299 109.235 41.4574C110.684 41.74 112.142 41.9865 113.51 42.5305C114.205 42.7643 114.896 43.0107 115.527 43.3699C116.169 43.7056 116.823 44.0201 117.437 44.3878C118.6 45.2059 119.803 45.973 120.772 46.9569C122.854 48.7929 124.424 50.9795 125.793 53.198C126.445 54.3263 127.011 55.493 127.563 56.6489C128.041 57.8453 128.485 59.0481 128.868 60.2614C128.972 60.5887 128.789 60.9393 128.46 61.0413C128.243 61.1093 128.018 61.0541 127.861 60.9138L127.833 60.8777Z" fill="#00C1F0"/>
<path d="M380.724 433.814C381.646 433.563 382.819 433.336 383.882 433.102L387.146 432.399C389.313 431.895 391.493 431.408 393.629 430.728C395.775 430.068 397.83 429.184 399.866 428.149C401.921 427.122 403.774 425.767 405.72 424.268L405.748 424.247C405.952 424.09 406.243 424.128 406.4 424.332C406.509 424.472 406.523 424.653 406.458 424.804C405.438 427.097 403.999 429.305 402.178 431.162C400.352 432.998 398.283 434.662 396.022 435.954C393.767 437.256 391.385 438.37 388.894 439.088C387.651 439.454 386.389 439.753 385.101 439.934C383.794 440.138 382.577 440.236 381.098 440.176C379.336 440.104 377.966 438.618 378.038 436.857C378.095 435.431 379.079 434.262 380.384 433.905L380.724 433.814Z" fill="#00C1F0"/>
<path d="M470.11 429.844C471.032 429.594 472.205 429.366 473.267 429.133L476.531 428.429C478.699 427.926 480.879 427.439 483.015 426.759C485.161 426.098 487.216 425.214 489.252 424.179C491.306 423.153 493.159 421.797 495.106 420.299L495.134 420.278C495.338 420.12 495.629 420.159 495.786 420.363C495.894 420.503 495.909 420.684 495.841 420.834C494.823 423.127 493.383 425.335 491.561 427.192C489.736 429.028 487.666 430.692 485.405 431.984C483.151 433.287 480.769 434.4 478.278 435.119C477.035 435.484 475.773 435.784 474.485 435.964C473.178 436.168 471.958 436.266 470.482 436.207C468.72 436.134 467.349 434.649 467.422 432.887C467.479 431.464 468.463 430.295 469.768 429.936L470.11 429.844Z" fill="#00C1F0"/>
<path d="M522.525 325.337C509.743 329.06 493.965 326.145 493.965 326.145C493.965 326.145 493.285 344.945 482.709 341.324C479.296 340.153 476.455 333.189 474.474 326.527C471.506 316.57 465.479 307.764 457.037 301.707C455.403 300.536 453.76 299.402 452.107 298.312C424.365 279.956 394.978 272.631 394.978 272.631L390.431 230.645L387.745 205.845L387.617 204.682C392.456 205.609 398.23 207.687 404.556 210.564C436.384 225.008 482.054 259.494 492.148 268.481C504.258 279.265 540.324 274.99 544.338 297.077C547.126 312.411 539.454 320.418 522.525 325.337Z" fill="#00C1F0"/>
<g opacity="0.35">
<path opacity="0.35" d="M522.525 325.337C509.743 329.06 493.965 326.145 493.965 326.145C493.965 326.145 493.285 344.945 482.709 341.324C479.296 340.153 476.455 333.189 474.474 326.527C471.506 316.57 465.479 307.764 457.037 301.707C455.403 300.536 453.76 299.402 452.107 298.312C424.365 279.956 394.978 272.631 394.978 272.631C401.13 268.317 408.906 267.023 416.114 269.146C423.878 271.433 434.397 275.564 448.42 284.841C450.073 285.931 451.716 287.066 453.35 288.237C461.792 294.291 467.821 303.097 470.79 313.057C472.768 319.721 475.609 326.682 479.024 327.853C485.129 329.944 487.305 324.491 488.055 319.508C488.62 315.743 491.995 313.044 495.788 313.357C502.099 313.877 511.315 314.058 518.84 311.867C533.4 307.636 541.108 301.127 541.216 289.635C542.733 291.724 543.813 294.174 544.34 297.079C547.126 312.411 539.455 320.418 522.525 325.337Z" fill="#00C1F0"/>
</g>
<path d="M395.27 271.458C398.321 271.528 401.245 271.977 404.165 272.531C407.072 273.107 409.94 273.84 412.76 274.716C418.389 276.499 423.895 278.668 429.25 281.176C431.947 282.387 434.561 283.781 437.185 285.139L441.063 287.302L442.999 288.388L444.905 289.531L448.719 291.809L452.455 294.223L454.323 295.428L456.153 296.697L459.812 299.238C464.88 302.912 469.272 307.594 472.545 312.959C474.19 315.637 475.579 318.476 476.65 321.434C476.918 322.173 477.182 322.915 477.405 323.669L478.042 325.784C478.446 327.12 478.877 328.44 479.341 329.73C480.269 332.271 481.372 334.836 482.66 336.623C482.817 336.829 482.974 337.059 483.127 337.207L483.35 337.462C483.421 337.518 483.486 337.575 483.55 337.637C483.69 337.794 483.763 337.773 483.843 337.868C483.899 337.847 483.799 337.881 484.105 337.949C484.989 338.202 485.597 338.208 486.024 338.015C486.472 337.871 487.031 337.395 487.579 336.587C488.121 335.78 488.608 334.717 488.986 333.553C489.373 332.392 489.664 331.132 489.891 329.847C490.11 328.586 490.276 327.171 490.333 326.013L490.541 321.884L494.621 322.573C496.97 322.97 499.596 323.257 502.106 323.418C504.643 323.58 507.184 323.65 509.7 323.554C512.216 323.463 514.705 323.234 517.134 322.84C519.56 322.437 521.83 321.778 524.284 320.985C529.014 319.377 533.539 317.26 536.735 314.202C538.296 312.66 539.48 310.904 540.217 308.928C540.963 306.956 541.267 304.763 541.259 302.47C541.178 301.308 541.157 300.152 540.94 298.962C540.787 297.734 540.562 296.707 540.234 295.687C539.582 293.656 538.496 291.85 537.015 290.279C534.049 287.119 529.563 285.005 524.818 283.413C520.041 281.813 514.936 280.678 509.736 279.412C507.133 278.777 504.496 278.114 501.832 277.285C499.171 276.45 496.466 275.468 493.793 273.997L492.794 273.434L491.808 272.782C491.145 272.374 490.518 271.817 489.885 271.314L488.412 270.043L486.927 268.795C484.921 267.138 482.862 265.506 480.796 263.882C476.648 260.648 472.432 257.476 468.178 254.356C459.667 248.117 451.01 242.072 442.194 236.289C433.366 230.537 424.448 224.91 415.183 220.038C410.525 217.649 405.78 215.509 401.181 213.17C396.521 210.9 392.054 208.597 387.386 205.864L387.335 205.834C386.733 205.481 386.529 204.708 386.882 204.106C387.093 203.747 387.46 203.531 387.845 203.488C389.254 203.344 390.716 203.269 392.103 203.403C392.8 203.467 393.51 203.507 394.209 203.596C394.9 203.692 395.58 203.826 396.266 203.951C399.007 204.472 401.627 205.313 404.177 206.295C409.307 208.201 414.042 210.86 418.712 213.529C423.387 216.196 428.052 218.841 432.625 221.633C437.202 224.413 441.709 227.29 446.178 230.218C455.114 236.079 463.864 242.191 472.473 248.502C476.776 251.66 481.043 254.87 485.265 258.162C487.373 259.817 489.473 261.479 491.557 263.205L493.121 264.518L494.662 265.846C495.448 266.486 496.292 267.121 497.31 267.646C501.311 269.833 506.39 271.107 511.456 272.357C516.562 273.604 521.84 274.762 527.136 276.53C529.779 277.421 532.436 278.471 535.024 279.862C537.604 281.25 540.137 283.003 542.302 285.298C544.469 287.576 546.184 290.426 547.147 293.45C547.634 294.95 547.959 296.535 548.133 297.935C548.386 299.361 548.439 300.864 548.524 302.349C548.547 305.358 548.148 308.505 547.015 311.501C545.902 314.5 544.034 317.233 541.809 319.404C537.266 323.71 531.856 326.051 526.6 327.87C525.251 328.27 523.997 328.739 522.567 329.079C521.165 329.473 519.76 329.734 518.355 330C515.546 330.456 512.741 330.709 509.953 330.811C507.165 330.915 504.394 330.839 501.636 330.665C498.852 330.478 496.194 330.201 493.31 329.713L497.599 326.272C497.509 328.013 497.322 329.485 497.055 331.085C496.776 332.658 496.419 334.235 495.888 335.828C495.363 337.42 494.677 339.041 493.604 340.65C492.539 342.22 490.945 343.918 488.646 344.785C487.528 345.236 486.306 345.416 485.176 345.404C484.608 345.393 484.047 345.357 483.535 345.253C482.993 345.178 482.509 345.044 482.031 344.9C481.623 344.813 480.883 344.494 480.273 344.182C479.768 343.854 479.185 343.493 478.816 343.13L478.206 342.575L477.7 342.021C477.347 341.645 477.088 341.279 476.808 340.907C475.734 339.428 474.978 337.975 474.294 336.528C473.62 335.08 473.04 333.637 472.519 332.197C472.001 330.756 471.531 329.315 471.096 327.872L470.477 325.818C470.292 325.178 470.067 324.553 469.84 323.928C468.937 321.427 467.759 319.024 466.365 316.757C463.59 312.207 459.882 308.252 455.558 305.114C446.369 298.46 436.324 292.984 425.954 288.269C415.646 283.362 405.025 279.316 394.696 273.804L394.668 273.789C394.065 273.466 393.835 272.716 394.158 272.11C394.375 271.688 394.817 271.45 395.27 271.458Z" fill="#00C1F0"/>
<g opacity="0.35">
<path opacity="0.35" d="M404.558 210.566C403.806 211.882 403.024 213.191 402.225 214.487C401.562 215.558 400.882 216.629 400.191 217.672C397.178 222.256 393.918 226.578 390.433 230.645C364.47 260.948 326.333 276.698 287.943 275.092C285.501 274.983 283.059 274.811 280.618 274.565C273.909 273.893 267.22 272.686 260.611 270.925C255.145 269.463 249.718 267.629 244.389 265.406C238.199 262.829 232.142 259.741 226.26 256.111C225.761 255.803 225.27 255.484 224.771 255.168C220.531 237.411 219.152 225.265 219.152 225.265L195.104 205.719L171.837 186.809C162.668 158.54 163.358 127.239 175.233 98.5623L289.57 209.16L366.597 189.705C366.597 189.705 375.356 194.935 387.749 205.847L387.622 204.684C392.456 205.609 398.23 207.687 404.558 210.566Z" fill="#00C1F0"/>
</g>
<g opacity="0.7">
<path opacity="0.7" d="M176.27 94.5864C173.907 100.509 172.262 105.898 171.166 110.039C172.3 104.61 174.032 99.4378 176.27 94.5864Z" fill="#00C1F0"/>
</g>
<path d="M164.332 170.238C170.792 190.613 182.367 209.455 198.65 224.7C201.972 227.806 205.476 230.762 209.173 233.546C210.969 234.906 212.826 236.224 214.722 237.516C220.453 241.379 226.382 244.711 232.463 247.526C237.697 249.966 243.05 252.012 248.46 253.691C254.992 255.718 261.629 257.189 268.299 258.13C270.732 258.466 273.168 258.736 275.605 258.94C320.208 262.593 365.42 242.701 392.205 202.946C431.673 144.392 416.19 64.9322 357.647 25.4668C346.365 17.8742 334.306 12.294 321.906 8.7006C320.461 8.2671 318.997 7.87398 317.529 7.5106C313.604 6.51611 309.656 5.71073 305.693 5.10086C296.525 3.69199 287.277 3.30312 278.129 3.89386C268.983 4.47399 259.914 6.03798 251.116 8.54547C248.318 9.34235 245.547 10.2285 242.799 11.2208C238.683 12.7083 234.639 14.3935 230.672 16.3123C210.897 25.8068 193.308 40.5266 180.165 60.0362C157.457 93.7194 152.942 134.313 164.332 170.238Z" fill="#00C1F0"/>
<g opacity="0.35">
<path opacity="0.35" d="M392.201 202.944C365.42 242.705 320.202 262.597 275.599 258.938C273.161 258.736 270.728 258.466 268.297 258.13C261.625 257.191 254.99 255.716 248.456 253.693C243.046 252.012 237.691 249.968 232.461 247.531C226.377 244.715 220.451 241.383 214.715 237.52C212.826 236.221 210.967 234.91 209.167 233.552C205.47 230.764 201.972 227.802 198.646 224.7C182.364 209.455 170.783 190.617 164.325 170.236C160.775 159.044 158.769 147.393 158.378 135.639C164.984 154.943 176.238 172.754 191.772 187.3C195.089 190.413 198.593 193.365 202.293 196.153C204.084 197.513 205.943 198.824 207.841 200.12C213.578 203.983 219.503 207.315 225.58 210.133C230.819 212.568 236.167 214.615 241.575 216.295C248.107 218.318 254.75 219.791 261.416 220.732C263.854 221.068 266.289 221.336 268.724 221.538C313.326 225.197 358.537 205.307 385.327 165.544C400.96 142.354 407.962 115.883 407.093 89.9221C419.65 126.538 415.5 168.385 392.201 202.944Z" fill="#00C1F0"/>
</g>
<path d="M286.051 263.001C282.481 263.001 278.901 262.856 275.307 262.561C272.808 262.35 270.286 262.072 267.802 261.73C260.855 260.748 253.989 259.212 247.381 257.161C241.735 255.412 236.199 253.279 230.927 250.82C224.641 247.909 218.502 244.445 212.69 240.529C210.544 239.067 208.682 237.732 206.978 236.442C203.262 233.644 199.621 230.584 196.168 227.354C179.851 212.077 167.645 192.708 160.87 171.339C148.649 132.796 154.584 91.4882 177.152 58.0111C190.199 38.6439 208.162 23.0953 229.099 13.042C233.056 11.1295 237.253 9.36785 241.562 7.80811C244.336 6.80936 247.213 5.88288 250.12 5.05626C259.166 2.47651 268.514 0.867894 277.896 0.272896C287.367 -0.339102 296.906 0.0795161 306.241 1.51601C310.304 2.14076 314.401 2.97589 318.417 3.99376C320.017 4.38901 321.507 4.79275 322.945 5.22413C335.895 8.97899 348.263 14.7802 359.67 22.4578C419.79 62.9857 435.732 144.864 395.212 204.978C370.679 241.392 329.571 263.001 286.051 263.001ZM167.793 169.142C174.194 189.329 185.722 207.623 201.132 222.05C204.396 225.103 207.837 227.996 211.358 230.648C212.973 231.872 214.739 233.134 216.768 234.517C222.244 238.208 228.043 241.481 233.989 244.233C238.972 246.555 244.2 248.57 249.533 250.223C255.772 252.159 262.256 253.61 268.805 254.537C271.149 254.86 273.544 255.125 275.907 255.323C320.695 258.999 364.111 238.145 389.19 200.919C427.472 144.124 412.41 66.7682 355.613 28.48C344.833 21.2232 333.15 15.7428 320.891 12.1877C319.535 11.7819 318.16 11.4079 316.655 11.0381C312.837 10.0691 308.969 9.28286 305.136 8.69211C296.321 7.33637 287.311 6.94324 278.359 7.51911C269.489 8.08011 260.658 9.60161 252.109 12.039C249.361 12.821 246.643 13.6943 244.03 14.6378C239.956 16.1105 235.993 17.7743 232.253 19.5827C212.469 29.0793 195.503 43.7693 183.176 62.0677C161.852 93.696 156.246 132.724 167.793 169.142Z" fill="#00C1F0"/>
<path d="M286.051 263.001C282.481 263.001 278.901 262.856 275.307 262.561C272.808 262.35 270.286 262.072 267.802 261.73C260.855 260.748 253.989 259.212 247.381 257.161C241.735 255.412 236.199 253.279 230.927 250.82C224.641 247.909 218.502 244.445 212.69 240.529C210.544 239.067 208.682 237.732 206.978 236.442C203.262 233.644 199.621 230.584 196.168 227.354C179.851 212.077 167.645 192.708 160.87 171.339C148.649 132.796 154.584 91.4882 177.152 58.0111C190.199 38.6439 208.162 23.0953 229.099 13.042C233.056 11.1295 237.253 9.36785 241.562 7.80811C244.336 6.80936 247.213 5.88288 250.12 5.05626C259.166 2.47651 268.514 0.867894 277.896 0.272896C287.367 -0.339102 296.906 0.0795161 306.241 1.51601C310.304 2.14076 314.401 2.97589 318.417 3.99376C320.017 4.38901 321.507 4.79275 322.945 5.22413C335.895 8.97899 348.263 14.7802 359.67 22.4578C419.79 62.9857 435.732 144.864 395.212 204.978C370.679 241.392 329.571 263.001 286.051 263.001ZM167.793 169.142C174.194 189.329 185.722 207.623 201.132 222.05C204.396 225.103 207.837 227.996 211.358 230.648C212.973 231.872 214.739 233.134 216.768 234.517C222.244 238.208 228.043 241.481 233.989 244.233C238.972 246.555 244.2 248.57 249.533 250.223C255.772 252.159 262.256 253.61 268.805 254.537C271.149 254.86 273.544 255.125 275.907 255.323C320.695 258.999 364.111 238.145 389.19 200.919C427.472 144.124 412.41 66.7682 355.613 28.48C344.833 21.2232 333.15 15.7428 320.891 12.1877C319.535 11.7819 318.16 11.4079 316.655 11.0381C312.837 10.0691 308.969 9.28286 305.136 8.69211C296.321 7.33637 287.311 6.94324 278.359 7.51911C269.489 8.08011 260.658 9.60161 252.109 12.039C249.361 12.821 246.643 13.6943 244.03 14.6378C239.956 16.1105 235.993 17.7743 232.253 19.5827C212.469 29.0793 195.503 43.7693 183.176 62.0677C161.852 93.696 156.246 132.724 167.793 169.142Z" fill="#00C1F0"/>
<path d="M178.157 199.944C241.871 265.449 348.966 247.977 371.253 160.257C386.415 100.579 339.688 39.6575 281.438 28.7648C239.042 20.8386 194.184 31.6441 163.892 94.0807C163.892 94.0807 154.75 123.79 159.104 145.571C163.458 167.353 171.368 187.801 171.368 187.801L178.157 199.944Z" fill="#00C1F0"/>
<g opacity="0.35">
<path opacity="0.35" d="M371.249 160.255C348.966 247.973 241.866 265.442 178.155 199.946L176.782 197.483C254.958 227.443 344.907 194.438 369.09 106.168C374.717 123.306 375.924 141.838 371.249 160.255Z" fill="#00C1F0"/>
</g>
<path d="M269.211 256.292C256.667 256.292 243.945 254.552 231.473 251.022L230.935 250.822C224.641 247.907 218.502 244.445 212.692 240.529C210.546 239.067 208.685 237.732 206.98 236.442C203.262 233.644 199.624 230.584 196.171 227.354C179.853 212.077 167.647 192.708 160.872 171.339C148.651 132.796 154.587 91.4882 177.154 58.0111C190.201 38.6439 208.164 23.0953 229.102 13.042L229.442 12.8784L229.807 12.7891C246.261 8.75375 264.498 8.55612 284.009 12.2047C318.774 18.7051 351.448 41.2406 371.41 72.4844C389.762 101.206 395.586 133.873 387.811 164.471C379.362 197.714 360.103 223.816 332.119 239.951C313.379 250.752 291.583 256.292 269.211 256.292ZM233.728 244.112C266.484 253.306 301.009 249.501 328.492 233.654C354.74 218.52 372.817 193.979 380.773 162.678C388.049 134.048 382.549 103.403 365.29 76.3901C346.388 46.806 315.504 25.4774 282.675 19.3405C264.328 15.9107 247.249 16.0488 231.902 19.7506C212.274 29.2493 195.431 43.8735 183.176 62.0656C161.854 93.6961 156.248 132.722 167.796 169.14C174.196 189.327 185.724 207.621 201.135 222.048C204.399 225.101 207.839 227.993 211.36 230.645C212.975 231.869 214.741 233.132 216.77 234.515C222.161 238.153 227.873 241.385 233.728 244.112Z" fill="#00C1F0"/>
<path d="M268.918 243.206C235.081 243.206 201.152 228.792 175.554 202.474L175.22 202.132L167.982 189.11C167.655 188.265 159.91 168.12 155.545 146.283C151.063 123.858 160.039 94.2613 160.422 93.0118L160.626 92.4955C187.195 37.7344 228.069 15.0926 282.105 25.1948C313.143 30.9982 342.311 51.1134 360.129 78.9996C376.514 104.646 381.716 133.82 374.772 161.15C364.748 200.602 337.126 229.079 298.986 239.281C289.122 241.921 279.024 243.206 268.918 243.206ZM181.092 197.751C212.484 229.798 256.896 243.021 297.11 232.265C332.635 222.762 358.375 196.189 367.732 159.36C374.175 133.997 369.302 106.846 354.007 82.9075C337.249 56.6787 309.868 37.7727 280.769 32.3306C230.43 22.919 192.25 44.1391 167.286 95.4003C166.427 98.3116 158.752 125.286 162.664 144.857C166.657 164.837 173.79 183.949 174.666 186.256L181.092 197.751Z" fill="#00C1F0"/>
<path d="M427.473 168.674C432.009 143.833 421.053 121.024 403.003 117.728C384.953 114.433 366.643 131.899 362.108 156.74C357.573 181.58 368.529 204.389 386.579 207.685C404.629 210.98 422.938 193.514 427.473 168.674Z" fill="#00C1F0"/>
<path d="M390.958 211.695C390.199 211.695 389.436 211.665 388.674 211.601C380.582 210.94 373.34 206.928 367.73 199.999C359.542 189.886 356.002 175.13 358.014 159.513C361.478 132.645 380.728 112.137 400.939 113.779C409.031 114.44 416.273 118.452 421.883 125.382C430.071 135.495 433.611 150.251 431.598 165.867C428.266 191.722 410.31 211.695 390.958 211.695ZM398.597 120.945C382.845 120.945 368.089 138.185 365.22 160.44C363.486 173.898 366.535 186.977 373.376 195.428C377.706 200.777 383.202 203.866 389.266 204.361C405.667 205.696 421.422 188.014 424.397 164.936C426.131 151.479 423.081 138.4 416.241 129.948C411.91 124.6 406.415 121.51 400.35 121.015C399.764 120.968 399.18 120.945 398.597 120.945Z" fill="#00C1F0"/>
<path d="M431.953 171.018C435.913 152.873 427.282 135.58 412.675 132.393C398.068 129.205 383.018 141.331 379.058 159.476C375.098 177.621 383.729 194.914 398.336 198.102C412.943 201.289 427.994 189.164 431.953 171.018Z" fill="#00C1F0"/>
<g opacity="0.35">
<path opacity="0.35" d="M377.613 179.816C376.803 172.988 377.862 165.914 380.322 159.46C383.48 174.873 396.128 182.625 409.724 176.898C418.511 173.203 425.668 164.72 429.467 154.73C429.673 155.701 429.83 156.715 429.954 157.75C432.009 175.136 421.957 194.172 407.501 200.262C393.047 206.355 379.668 197.192 377.613 179.816Z" fill="#00C1F0"/>
</g>
<path d="M401.619 207.509C401.092 207.509 400.563 207.489 400.032 207.449C393.984 207.003 388.544 204.007 384.296 198.783C377.666 190.628 374.759 177.846 376.521 164.592C379.523 141.993 394.409 125.216 410.372 126.391C416.42 126.837 421.86 129.834 426.107 135.059C432.737 143.215 435.644 155.997 433.883 169.25C430.98 191.097 416.985 207.509 401.619 207.509ZM408.842 133.597C397.424 133.597 386.064 147.896 383.72 165.548C382.218 176.858 384.54 187.57 389.934 194.202C392.887 197.836 396.564 199.912 400.567 200.207C412.291 201.074 424.271 186.458 426.685 168.292C428.188 156.983 425.865 146.273 420.474 139.638C417.52 136.005 413.844 133.929 409.841 133.633C409.505 133.608 409.173 133.597 408.842 133.597Z" fill="#00C1F0"/>
<g opacity="0.7">
<path opacity="0.7" d="M307.227 56.4704C307.227 56.4704 249.567 49.4516 212.093 76.3944C212.053 76.422 212.014 76.4517 211.974 76.4794C204.093 82.1573 197.888 89.8668 193.958 98.7493C188.759 110.496 186.897 119.353 185.56 127.214C181.502 151.122 184.071 163.083 184.071 163.083C172.617 148.143 167.39 132.501 170.573 112.555C170.892 110.59 171.293 108.575 171.771 106.52C171.88 106.047 171.999 105.579 172.124 105.109C172.114 105.103 172.122 105.092 172.135 105.082C173.395 100.987 175.252 95.668 177.851 89.8456C185.675 72.2761 200.172 50.087 225.1 42.8811C271.71 29.4023 309.62 54.3072 307.227 56.4704Z" fill="#00C1F0"/>
</g>
<g opacity="0.7">
<path opacity="0.7" d="M341.637 142.387C351.034 141.508 357.822 131.917 356.798 120.966C355.774 110.014 347.326 101.848 337.928 102.727C328.531 103.606 321.743 113.196 322.767 124.148C323.791 135.099 332.239 143.265 341.637 142.387Z" fill="#00C1F0"/>
</g>
<g opacity="0.7">
<path opacity="0.7" d="M344.609 166.683C348.445 165.994 350.904 161.812 350.101 157.341C349.298 152.871 345.537 149.805 341.701 150.494C337.864 151.183 335.405 155.366 336.208 159.837C337.011 164.307 340.772 167.373 344.609 166.683Z" fill="#00C1F0"/>
</g>
<path d="M307.097 330.078C307.422 331.54 312.11 342.877 312.11 342.877C312.11 342.877 315.848 342.042 320.436 341.02C326.169 339.741 329.49 332.768 327.856 325.446C326.222 318.123 320.251 313.225 314.518 314.504C310.648 315.367 306.192 316.361 306.192 316.361C306.192 316.361 306.566 327.698 307.097 330.078Z" fill="#00C1F0"/>
<g opacity="0.35">
<path opacity="0.35" d="M307.097 330.078C307.422 331.54 312.11 342.877 312.11 342.877C312.11 342.877 315.848 342.042 320.436 341.02C326.169 339.741 329.49 332.768 327.856 325.446C326.222 318.123 320.251 313.225 314.518 314.504C310.648 315.367 306.192 316.361 306.192 316.361C306.192 316.361 306.566 327.698 307.097 330.078Z" fill="#00C1F0"/>
</g>
<path d="M312.11 345.002C311.266 345.002 310.482 344.496 310.147 343.689C309.031 340.99 305.363 332.063 305.023 330.541C304.464 328.038 304.107 317.613 304.069 316.434C304.035 315.414 304.732 314.513 305.731 314.29L314.054 312.43C320.922 310.9 328.043 316.529 329.93 324.982C330.823 328.984 330.432 333.045 328.827 336.413C327.138 339.957 324.322 342.329 320.899 343.094L312.573 344.953C312.418 344.985 312.263 345.002 312.11 345.002ZM309.169 329.613C309.365 330.418 311.362 335.463 313.394 340.414L319.972 338.946C322.093 338.472 323.876 336.925 324.99 334.585C326.188 332.071 326.469 328.99 325.782 325.909C324.405 319.742 319.56 315.554 314.981 316.58L308.381 318.053C308.549 322.375 308.859 328.215 309.169 329.613Z" fill="#00C1F0"/>
<path d="M312.094 342.902C317.827 341.623 321.15 334.65 319.516 327.328C317.882 320.007 311.91 315.109 306.177 316.388C300.444 317.667 297.121 324.64 298.755 331.961C300.389 339.283 306.361 344.181 312.094 342.902Z" fill="#00C1F0"/>
<g opacity="0.35">
<path opacity="0.35" d="M319.531 327.305C321.167 334.621 317.845 341.598 312.114 342.879C306.375 344.16 300.404 339.26 298.774 331.933C298.551 330.945 298.423 329.957 298.38 328.99C300.977 333.691 305.576 336.426 310.025 335.427C314.977 334.322 318.137 328.971 317.837 322.804C318.587 324.154 319.161 325.671 319.531 327.305Z" fill="#00C1F0"/>
</g>
<path d="M319.531 327.305C319.643 327.802 319.73 328.3 319.79 328.795C317.372 323.312 312.35 319.98 307.509 321.064C302.169 322.26 298.912 328.399 299.836 335.157C299.386 334.145 299.031 333.07 298.774 331.933C297.137 324.617 300.459 317.639 306.19 316.359C311.923 315.086 317.892 319.98 319.531 327.305Z" fill="#00C1F0"/>
<path d="M310.244 345.208C307.571 345.208 304.908 344.203 302.556 342.276C299.673 339.911 297.59 336.402 296.698 332.401C294.811 323.948 298.863 315.824 305.729 314.29C312.59 312.764 319.718 318.386 321.605 326.842C322.497 330.845 322.106 334.904 320.502 338.272C318.812 341.817 315.997 344.188 312.573 344.953C311.802 345.123 311.022 345.208 310.244 345.208ZM308.051 318.282C307.586 318.282 307.118 318.333 306.655 318.437C302.076 319.46 299.469 325.308 300.846 331.474C301.532 334.553 303.098 337.222 305.251 338.99C307.254 340.633 309.524 341.279 311.647 340.803C313.768 340.329 315.55 338.782 316.664 336.443C317.862 333.929 318.143 330.847 317.457 327.766C316.22 322.224 312.182 318.282 308.051 318.282Z" fill="#00C1F0"/>
<path d="M295.369 373.358C294.19 373.358 293.104 372.578 292.771 371.386L285.728 346.294C285.342 344.919 284.309 343.808 283.03 343.393L273.187 340.206C270.926 339.475 269.211 337.63 268.601 335.278L259.438 299.916C259.064 298.471 259.931 296.998 261.376 296.624C262.815 296.25 264.294 297.117 264.668 298.562L273.831 333.924C273.973 334.473 274.364 334.912 274.85 335.07L284.693 338.257C287.717 339.237 290.048 341.695 290.93 344.838L297.973 369.93C298.374 371.367 297.537 372.858 296.103 373.26C295.856 373.324 295.612 373.358 295.369 373.358Z" fill="#00C1F0"/>
<path d="M595.228 345.527C591.743 344.8 584.344 343.421 576.156 343.013C567.386 342.578 557.701 343.249 550.937 346.998C544.084 350.793 540.769 356.783 534.06 361.866C530.955 364.227 527.124 366.386 521.877 368.058C517.194 369.548 512.98 370.047 508.868 370.292C497.884 370.955 487.672 369.829 471.413 381.076C469.788 382.202 467.828 383.273 465.64 384.272C465.032 384.563 464.396 384.835 463.75 385.107C463.714 385.126 463.678 385.143 463.651 385.152C448.455 391.569 424.933 395.373 424.933 395.373L303.906 206.425L570.752 304.666L596.161 344.163C596.59 344.839 596.008 345.701 595.228 345.527Z" fill="#F91C1C"/>
<g opacity="0.2">
<path opacity="0.2" d="M595.228 345.527C591.743 344.8 584.344 343.421 576.156 343.013C567.386 342.578 557.701 343.249 550.937 346.998C544.084 350.793 540.769 356.783 534.06 361.866C530.955 364.227 527.124 366.386 521.877 368.058C517.194 369.548 512.98 370.047 508.868 370.292C497.884 370.955 487.672 369.829 471.413 381.076C469.788 382.202 467.828 383.273 465.64 384.272C465.032 384.563 464.396 384.835 463.75 385.107C463.714 385.126 463.678 385.143 463.651 385.152C448.455 391.569 424.933 395.373 424.933 395.373L303.906 206.425L570.752 304.666L596.161 344.163C596.59 344.839 596.008 345.701 595.228 345.527Z" fill="#371A45"/>
</g>
<g opacity="0.35">
<path opacity="0.35" d="M576.154 343.013C567.384 342.578 557.698 343.249 550.935 346.998C544.081 350.793 540.766 356.783 534.058 361.866C536.119 357.172 538.098 349.112 531.916 342.367C520.26 329.649 496.184 321.088 496.348 318.873C496.868 311.92 547.496 332.892 576.154 343.013Z" fill="#371A45"/>
</g>
<g opacity="0.35">
<path opacity="0.35" d="M508.868 370.292C497.884 370.955 487.671 369.829 471.413 381.076C469.788 382.202 467.828 383.273 465.64 384.272C464.96 384.536 464.324 384.808 463.75 385.107C463.714 385.126 463.678 385.143 463.651 385.152C466.456 380.857 474.654 377.009 470.223 363.736C464.768 347.37 440.384 329.685 440.911 327.533C442.328 321.717 481.082 352.219 508.868 370.292Z" fill="#371A45"/>
</g>
<path d="M423.159 399.34L295.02 199.283L573.149 301.676L599.214 342.199C600.207 343.742 600.177 345.714 599.138 347.223C598.101 348.729 596.271 349.458 594.482 349.084C580.527 346.145 562.223 344.89 552.696 350.172C549.271 352.07 546.831 354.616 544.007 357.565C539.309 362.468 533.986 368.027 522.976 371.522C516.25 373.658 510.473 373.889 504.884 374.11C495.596 374.48 486.821 374.831 473.477 384.066C460.166 393.278 426.92 398.733 425.511 398.96L423.159 399.34ZM312.791 213.565L426.686 391.384C434.419 389.984 459.254 385.075 469.341 378.095C484.422 367.659 494.675 367.251 504.591 366.856C509.935 366.643 514.982 366.441 520.775 364.601C530.018 361.664 534.264 357.234 538.761 352.542C541.723 349.45 544.785 346.254 549.173 343.821C560.506 337.537 578.402 338.986 589.684 340.81L568.355 307.651L312.791 213.565ZM593.101 346.12C593.103 346.122 593.105 346.126 593.107 346.131L593.101 346.12Z" fill="#371A45"/>
<path d="M338.65 225.165C338.65 225.165 483.183 273.849 597.342 346.005C597.342 346.005 615.675 314.919 588.269 288.492C588.269 288.492 535.905 283.11 461.757 253.356C389.767 224.466 333.803 191.486 333.803 191.486L338.65 225.165Z" fill="#F91C1C"/>
<g opacity="0.35">
<path opacity="0.35" d="M599.112 342.369C599.212 341.959 599.31 341.543 599.404 341.116C604.187 319.373 589.644 298.044 567.752 294C546.398 290.054 507.328 281.014 459.003 261.622C398.762 237.437 349.74 210.403 335.344 202.224L333.801 191.484C333.801 191.484 389.767 224.464 461.764 253.36C535.902 283.108 588.273 288.492 588.273 288.492C610.043 309.479 602.952 333.408 599.112 342.369Z" fill="white"/>
</g>
<path d="M597.022 349.265C596.172 349.265 595.33 349.027 594.599 348.566C482.257 277.755 338.926 229.088 337.492 228.606L335.375 227.892L329.136 184.519L335.65 188.356C336.206 188.686 392.225 221.536 463.113 249.983C535.856 279.174 588.124 284.825 588.643 284.878L589.888 285.007L590.791 285.876C617.336 311.474 603.977 341.139 601.029 346.826C600.447 347.947 599.416 348.778 598.201 349.108C597.814 349.214 597.417 349.265 597.022 349.265ZM341.929 222.452C360.087 228.748 490.698 275.09 595.849 340.776C599.372 332.48 605.583 311.041 586.609 291.952C578.047 290.885 527.817 283.775 460.408 256.726C403.02 233.695 355.291 207.789 338.459 198.327L341.929 222.452Z" fill="#371A45"/>
<path d="M245.858 352.95C253.519 381.818 261.36 395.428 261.36 395.428C261.36 395.428 274.052 423.204 301.195 436.961C318.654 445.812 340.909 443.997 340.909 443.997C340.909 443.997 352.286 480.162 367.452 487.487C382.618 494.812 408.069 484.684 403.987 458.169C401.269 440.523 390.164 414.243 382.773 405.722C373.523 395.061 335.386 351.08 330.807 334.022" fill="white"/>
<g opacity="0.35">
<path opacity="0.35" d="M245.858 352.95C253.519 381.818 261.36 395.428 261.36 395.428C261.36 395.428 274.052 423.204 301.195 436.961C318.654 445.812 340.909 443.997 340.909 443.997C340.909 443.997 352.286 480.162 367.452 487.487C382.618 494.812 408.069 484.684 403.987 458.169C401.269 440.523 390.164 414.243 382.773 405.722C373.523 395.061 335.386 351.08 330.807 334.022" fill="#371A45"/>
</g>
<path d="M378.079 493.45C373.823 493.45 369.624 492.566 365.873 490.753C351.731 483.924 341.453 456.879 338.327 447.754C331.542 447.935 314.138 447.591 299.554 440.198C272.35 426.406 259.307 399.602 258.13 397.086C257.199 395.426 249.708 381.607 242.35 353.878C241.835 351.94 242.989 349.951 244.927 349.437C246.863 348.923 248.854 350.077 249.368 352.015C256.785 379.958 264.432 393.482 264.509 393.614L264.664 393.913C264.785 394.177 277.208 420.724 302.837 433.716C319.191 442.006 340.401 440.387 340.613 440.372L343.501 440.136L344.373 442.901C347.411 452.546 357.764 478.771 369.031 484.211C376.035 487.594 385.589 486.508 392.264 481.571C399.01 476.582 401.898 468.464 400.396 458.715C397.708 441.254 386.766 415.862 380.028 408.095C348.223 371.431 330.481 346.825 327.298 334.957C326.778 333.022 327.927 331.028 329.865 330.51C331.803 329.991 333.794 331.139 334.313 333.077C335.943 339.152 344.764 356.36 385.515 403.338C393.768 412.851 404.901 440.24 407.576 457.612C410.184 474.54 401.807 483.55 396.584 487.413C391.209 491.389 384.577 493.45 378.079 493.45Z" fill="#371A45"/>
<path d="M249.57 216.16L77.737 49.9534C77.737 49.9534 52.9575 15.9578 21.3334 40.8542C-9.70852 65.2895 7.28079 89.8735 18.1799 101.431L179.152 232.261C179.152 232.261 192.036 345.635 259.951 386.021C306.104 413.465 350.748 391.457 350.748 391.457C350.748 391.457 363.44 419.232 390.583 432.99C408.042 441.84 430.297 440.025 430.297 440.025C430.297 440.025 441.674 476.191 456.84 483.516C472.006 490.84 497.457 480.713 493.375 454.197C490.657 436.551 479.552 410.271 472.161 401.75C462.911 391.089 424.774 347.108 420.194 330.051C395.421 237.75 326.597 196.699 326.597 196.699L249.57 216.16Z" fill="white"/>
<path d="M493.808 459.501C493.953 482.041 470.941 490.33 456.834 483.511C441.674 476.195 430.29 440.028 430.29 440.028C430.29 440.028 408.04 441.842 390.583 432.992C363.44 419.23 350.748 391.461 350.748 391.461C350.748 391.461 306.101 413.465 259.951 386.023C259.26 385.615 258.572 385.188 257.89 384.761C213.626 357.028 193.345 298.093 184.767 262.164C180.527 244.407 179.148 232.261 179.148 232.261L155.1 212.715L131.833 193.805L18.1777 101.427C18.0226 101.263 17.8696 101.1 17.7145 100.928C6.80265 89.1808 -9.27505 64.9431 21.327 40.8499C52.9554 15.9493 77.737 49.947 77.737 49.947L135.227 105.558L249.564 216.155L326.591 196.701C326.591 196.701 335.35 201.931 347.743 212.843C351.591 216.228 355.794 220.167 360.189 224.67C377.582 242.463 398.052 269.061 412.105 305.309C415.118 313.108 417.851 321.351 420.184 330.047C424.767 347.104 462.905 391.087 472.155 401.744C479.543 410.267 490.655 436.549 493.371 454.197C493.664 456.042 493.8 457.814 493.808 459.501Z" fill="white"/>
<g opacity="0.35">
<path opacity="0.35" d="M493.808 459.501C493.953 482.041 470.941 490.331 456.834 483.511C441.674 476.195 430.29 440.028 430.29 440.028C430.29 440.028 408.039 441.842 390.583 432.992C363.44 419.23 350.748 391.461 350.748 391.461C350.748 391.461 306.101 413.465 259.951 386.023C259.26 385.615 258.572 385.188 257.89 384.761C273.413 388.42 296.352 391.714 316.442 386.168C350.684 376.726 350.684 365.506 363.665 367.576C376.655 369.637 364.473 395.501 393.632 415.835C425.069 437.767 456.024 417.405 461.071 422.771C466.128 428.136 445.539 437.278 447.79 457.013C449.772 474.308 485.102 483.531 493.808 459.501Z" fill="#371A45"/>
</g>
<g opacity="0.35">
<path opacity="0.35" d="M155.102 212.717L18.1799 101.431C18.0247 101.268 17.8717 101.104 17.7166 100.932L46.0406 60.7802C46.0406 60.7802 64.4601 132.713 97.9394 144.516C124.593 153.91 128.223 108.512 128.223 108.512L155.102 212.717Z" fill="#371A45"/>
</g>
<path d="M467.465 489.483C463.209 489.483 459.01 488.599 455.259 486.786C441.117 479.956 430.839 452.912 427.713 443.787C420.932 443.978 403.526 443.623 388.94 436.23C366.203 424.704 353.357 404.086 349.065 396.157C337.647 400.777 298.696 413.287 258.096 389.145C222.075 367.725 201.541 326.234 190.657 295.201C180.321 265.729 176.562 240.491 175.731 234.163L15.7042 104.1L15.5385 103.926C4.58202 92.3066 -0.76233 80.107 0.0876673 68.6448C0.905789 57.5948 7.29989 47.2844 19.0893 38.0046C28.9812 30.2165 39.3065 27.0035 49.7742 28.4442C67.1461 30.8391 78.7634 45.3039 80.4719 47.5479L250.643 212.148L327.164 192.817L328.456 193.588C329.177 194.017 346.342 204.368 366.762 226.294C385.566 246.485 410.708 280.715 423.701 329.116C425.333 335.195 434.154 352.406 474.902 399.377C483.156 408.89 494.289 436.279 496.964 453.651C499.569 470.579 491.195 479.589 485.971 483.452C480.595 487.419 473.963 489.483 467.465 489.483ZM432.885 436.177L433.756 438.938C436.795 448.583 447.15 474.807 458.415 480.247C465.419 483.63 474.973 482.545 481.647 477.608C488.394 472.619 491.282 464.501 489.782 454.75C487.093 437.289 476.152 411.897 469.414 404.13C437.611 367.472 419.869 342.865 416.682 330.992C394.418 248.045 335.275 206.68 325.966 200.603L248.497 220.174L74.9873 52.344L74.8024 52.0911C74.7004 51.953 64.0924 37.7198 48.7309 35.6288C40.3095 34.4792 31.8436 37.1992 23.5773 43.708C13.456 51.6767 7.98839 60.2468 7.32539 69.1782C6.45627 80.9251 14.0531 91.7222 20.6555 98.7687L182.588 230.38L182.756 231.853C182.884 232.968 196.244 343.919 261.804 382.904C305.632 408.965 348.714 388.412 349.143 388.201L352.492 386.561L354.046 389.95C354.167 390.214 366.589 416.761 392.219 429.753C408.52 438.015 429.785 436.426 429.997 436.407L432.885 436.177Z" fill="#371A45"/>
<path d="M331.903 348.124C332.012 356.911 327.436 365.236 320.056 368.158C301.565 375.494 270.472 383.981 237.12 376.51C229.368 374.776 222.349 369.928 217.258 362.657C211.093 353.851 202.861 339.407 196.269 318.31C193.872 310.631 198.983 302.56 205.747 303.286C222.496 305.101 253.57 304.893 296.118 289.497C304.389 286.501 313.203 291.448 316.607 301.045L325.178 325.174L330.516 340.217C331.431 342.805 331.886 345.482 331.903 348.124Z" fill="white"/>
<g opacity="0.35">
<path opacity="0.35" d="M331.903 348.124C332.012 356.911 327.436 365.236 320.056 368.158C301.565 375.494 270.472 383.981 237.12 376.51C229.368 374.776 222.349 369.928 217.258 362.657C216.886 362.13 216.514 361.586 216.131 361.014C218.856 362.604 221.769 363.755 224.793 364.427C258.155 371.898 289.246 363.411 307.738 356.076C310.923 354.813 313.584 352.544 315.581 349.675C312.096 348.776 309.017 345.763 307.729 341.677L307.485 340.905C305.37 334.224 308.811 327.516 314.701 326.797C315.664 326.678 316.627 326.553 317.589 326.417L304.308 289.015C309.646 290.294 314.34 294.634 316.61 301.043L325.18 325.172L330.518 340.215C330.637 340.542 330.737 340.859 330.836 341.186C330.917 341.449 331 341.713 331.064 341.976C331.219 342.512 331.336 343.056 331.444 343.591C331.489 343.819 331.536 344.055 331.572 344.29C331.627 344.571 331.663 344.853 331.699 345.145C331.744 345.472 331.782 345.808 331.808 346.135C331.844 346.471 331.863 346.798 331.88 347.134C331.895 347.461 331.903 347.797 331.903 348.124Z" fill="#371A45"/>
</g>
<path d="M263.98 383.063C255.078 383.063 245.798 382.177 236.327 380.054C227.672 378.116 219.844 372.676 214.287 364.735C208.256 356.12 199.635 341.26 192.81 319.396C191.163 314.12 192.223 308.306 195.579 304.224C198.307 300.904 202.157 299.251 206.138 299.678C224.113 301.625 254.105 300.843 294.888 286.083C299.429 284.438 304.353 284.678 308.751 286.754C313.896 289.185 317.904 293.826 320.033 299.825L333.941 339.003C338.59 352.1 332.847 366.998 321.399 371.537C306.845 377.311 286.645 383.063 263.98 383.063ZM204.901 306.876C203.084 306.876 201.809 308.078 201.186 308.837C199.395 311.017 198.828 314.313 199.739 317.233C206.288 338.209 214.499 352.378 220.235 360.572C224.75 367.024 231.03 371.427 237.913 372.969C269.698 380.09 299.401 372.451 318.722 364.788C326.504 361.703 330.416 350.791 327.096 341.436L313.188 302.258C311.709 298.095 309.032 294.92 305.649 293.322C302.974 292.06 300.107 291.918 297.359 292.912C255.267 308.144 224.094 308.924 205.356 306.899C205.2 306.882 205.047 306.876 204.901 306.876Z" fill="#371A45"/>
<g opacity="0.35">
<path opacity="0.35" d="M405.436 296.378C388.783 304.787 350.495 322.437 314.706 326.8C308.809 327.518 305.368 334.222 307.485 340.907L307.729 341.683C309.382 346.898 313.93 350.366 318.548 349.911C355.886 346.235 398.292 330.057 416.172 322.652C420.959 320.669 423.019 314.371 420.736 308.69L418.286 302.585C415.974 296.827 410.137 294.002 405.436 296.378Z" fill="#371A45"/>
</g>
<path d="M406.344 287.3C389.69 295.709 351.402 313.359 315.613 317.722C309.716 318.44 306.276 325.144 308.392 331.829L308.637 332.605C310.29 337.82 314.837 341.288 319.455 340.833C356.793 337.157 399.199 320.979 417.079 313.574C421.867 311.591 423.926 305.293 421.644 299.612L419.194 293.507C416.882 287.749 411.044 284.924 406.344 287.3Z" fill="white"/>
<path d="M318.652 344.503C312.759 344.503 307.213 340.128 305.177 333.702L304.931 332.926C303.488 328.368 304.051 323.427 306.437 319.713C308.475 316.542 311.578 314.555 315.171 314.116C350.873 309.761 389.677 291.644 404.705 284.057C407.634 282.578 410.995 282.426 414.17 283.622C417.891 285.024 420.949 288.133 422.562 292.152L425.014 298.257C428.044 305.803 425.107 314.177 418.469 316.927C401.514 323.95 357.958 340.691 319.812 344.446C319.425 344.484 319.036 344.503 318.652 344.503ZM407.98 290.541C392.612 298.301 352.89 316.833 316.051 321.326C314.242 321.547 313.146 322.707 312.547 323.64C311.314 325.559 311.055 328.208 311.854 330.733L312.1 331.509C313.22 335.045 316.223 337.503 319.102 337.218C356.279 333.559 399.036 317.116 415.692 310.218C418.62 309.005 419.804 304.768 418.276 300.964L415.823 294.859C414.967 292.725 413.431 291.106 411.607 290.418C410.725 290.084 409.378 289.835 407.98 290.541Z" fill="#371A45"/>
<g opacity="0.35">
<path opacity="0.35" d="M308.392 331.823L308.637 332.601C310.294 337.813 314.839 341.286 319.457 340.835C356.795 337.15 399.208 320.975 417.083 313.578C421.869 311.589 423.926 305.297 421.642 299.619L419.189 293.503C419.128 293.339 419.055 293.18 418.985 293.033C418.777 296.846 416.775 300.22 413.507 301.591C395.63 308.988 353.223 325.178 315.881 328.848C312.982 329.137 310.107 327.868 307.967 325.593C307.6 327.535 307.714 329.687 308.392 331.823Z" fill="#371A45"/>
</g>
<path d="M10.5703 91.8986C10.5703 91.8986 18.3201 101.678 29.3573 99.98C47.7024 97.158 73.2533 77.5315 67.9982 63.7191C63.6356 52.2526 51.1172 52.2314 55.5521 43.2788" fill="white"/>
<g opacity="0.35">
<path opacity="0.35" d="M29.3552 99.98C18.3159 101.678 10.5724 91.9007 10.5724 91.9007L10.5915 91.8816C13.5516 93.3351 17.1917 94.2786 21.2845 93.6517C39.6317 90.8276 65.1847 71.2118 59.9296 57.3951C58.0596 52.4758 54.683 49.6601 51.7866 47.346L55.5542 43.2788C51.1151 52.2377 63.6335 52.2569 68.0003 63.7233C73.2554 77.5294 47.7024 97.1559 29.3552 99.98Z" fill="#371A45"/>
</g>
<path d="M13.4156 89.644L13.796 90.0754C13.9448 90.2411 14.1041 90.4069 14.2699 90.5747C14.5886 90.9105 14.9414 91.2335 15.2878 91.5522C15.9932 92.1834 16.7327 92.7826 17.5041 93.316C19.0405 94.3955 20.6874 95.2561 22.3746 95.8043C24.064 96.3568 25.7873 96.5906 27.5001 96.5098L28.7836 96.3951L30.2307 96.1358C31.1997 95.9276 32.1687 95.7045 33.1356 95.4218C37.0094 94.3147 40.8217 92.6551 44.4427 90.6576C48.0615 88.6538 51.521 86.3141 54.6405 83.6536C57.7472 81.0016 60.6202 78.0309 62.5603 74.7414C63.5293 73.1094 64.2433 71.4094 64.5876 69.8008C64.9403 68.1794 64.8617 66.7302 64.4622 65.4148C64.3985 65.1152 64.1987 64.6583 64.0563 64.2609C63.8715 63.8678 63.71 63.4641 63.4975 63.0858C63.0958 62.3145 62.6645 61.5516 62.1226 60.8291C61.0707 59.3629 59.7426 57.9858 58.2275 56.4877C57.4731 55.7312 56.6359 54.9875 55.8199 54.0822C55.0102 53.1706 54.1071 52.2101 53.4356 50.8416C53.0871 50.1893 52.8342 49.4051 52.6855 48.6316C52.5644 47.8369 52.5835 47.0358 52.7259 46.3069C53.0021 44.8321 53.7119 43.7059 54.4599 42.7518C54.8806 42.2141 55.6562 42.1207 56.1939 42.5414C56.5721 42.8368 56.7315 43.3085 56.6444 43.7505L56.6295 43.827C56.4319 44.8322 56.349 45.799 56.5211 46.5215C56.6954 47.2504 57.0141 47.6966 57.5262 48.196C58.5526 49.199 60.395 50.2466 62.2543 51.4982C64.1477 52.7307 66.1176 54.2692 67.8218 56.2072C68.6718 57.172 69.4623 58.2324 70.1296 59.3692C70.4738 59.9324 70.7607 60.5252 71.0603 61.1138C71.3196 61.7322 71.6064 62.2635 71.8189 63.0221C72.7709 65.8696 72.7242 68.9593 72.0166 71.5773C71.3238 74.2229 70.1487 76.5264 68.8291 78.6132C66.1558 82.776 62.8748 86.1781 59.3431 89.1935C55.805 92.2067 51.98 94.7907 47.9489 97.0241C43.9135 99.2468 39.6593 101.115 35.1203 102.415C33.9877 102.745 32.8274 103.017 31.6566 103.265L29.8737 103.584L27.8911 103.773C25.237 103.909 22.5659 103.527 20.1009 102.715C17.6295 101.907 15.3664 100.702 13.3264 99.2723C12.3 98.5626 11.3374 97.7806 10.413 96.954C9.95402 96.5332 9.5014 96.1146 9.06578 95.6598C8.84691 95.4388 8.62803 95.2093 8.41128 94.9692C8.1839 94.7206 8.00327 94.5166 7.71427 94.166C6.44565 92.6147 6.67516 90.3304 8.2264 89.0618C9.74152 87.8229 11.9558 88.012 13.2414 89.4676L13.4156 89.644Z" fill="#371A45"/>
<path d="M88.3514 67.5653C77.737 49.9534 65.6331 48.9419 51.4233 56.9744C41.0575 62.8351 35.7748 73.1307 39.1557 79.138C43.2187 86.3609 63.1511 74.3738 63.795 74.9454C64.4388 75.5171 59.4239 85.2963 62.0758 93.8536" fill="white"/>
<path d="M87.8329 67.8777C86.8851 67.0341 85.999 66.1777 85.149 65.315L83.7954 64.108C83.3555 63.7042 82.9433 63.2771 82.4885 62.901C80.6589 61.422 78.9122 59.9451 77.0188 58.8953C76.1178 58.2791 75.1318 57.9136 74.2181 57.4333C73.2469 57.1146 72.3289 56.6832 71.3514 56.5175C69.4432 56.0224 67.4861 55.9246 65.4801 56.1605C64.4877 56.2136 63.4635 56.475 62.452 56.6535C61.4362 56.968 60.4056 57.1656 59.3792 57.58C57.3222 58.2579 55.2695 59.2502 53.2444 60.283C49.4406 62.3442 46.0045 65.3086 43.8753 68.8616C42.8 70.6062 42.1115 72.5123 41.9394 74.1953C41.9012 75.0155 41.916 75.8039 42.1519 76.3989C42.2029 76.7389 42.4154 76.9599 42.5089 77.2489C42.5684 77.3233 42.5684 77.2872 42.6045 77.3127C42.664 77.3445 43.157 77.5188 43.9518 77.5103C44.7317 77.5167 45.7007 77.3891 46.6994 77.1703C48.7224 76.7474 50.8793 76.0016 53.0425 75.1983C55.2206 74.3844 57.3775 73.4494 59.6703 72.5166C60.2547 72.2764 60.82 72.0406 61.5297 71.7728C61.7167 71.7048 61.9059 71.6347 62.18 71.5497L62.401 71.4838L62.7303 71.4009C62.8578 71.3712 63.1213 71.3244 63.3105 71.3074C63.5633 71.2841 63.8353 71.2841 64.0967 71.3096C64.1413 71.3138 64.39 71.3244 64.9063 71.4817C65.3228 71.6177 65.7287 71.8408 66.0602 72.1022C66.3768 72.3614 66.4257 72.4379 66.6063 72.6462C66.7551 72.8268 66.889 73.0266 67.0058 73.2348C67.2353 73.6194 67.3989 74.2208 67.3904 74.2484C67.4542 74.5587 67.4882 74.8859 67.4882 75.194L67.4606 75.5999C67.4478 75.7402 67.4266 75.8783 67.4138 75.9335C67.3501 76.2799 67.2885 76.4945 67.2268 76.7113C66.9888 77.4805 66.7806 78.033 66.5638 78.6132L65.9263 80.2728C64.2752 84.6163 62.8153 88.7473 62.656 93.6836V93.7027C62.6453 94.0534 62.3521 94.3275 62.0015 94.3147C61.7932 94.3084 61.6105 94.2 61.5 94.0406C59.9785 91.8327 59.239 89.1 58.9904 86.4161C58.7545 83.7195 59.0116 81.0229 59.4961 78.4729L60.2484 74.9752C60.259 74.8923 60.2654 74.8094 60.2484 74.8541C60.2505 74.8349 60.2377 74.8966 60.2292 74.9603C60.2228 75.0198 60.2186 75.0793 60.2207 75.1367C60.2122 75.3704 60.2377 75.6212 60.2951 75.8549L60.3844 76.1758C60.4481 76.3734 60.5331 76.5732 60.6394 76.7644C60.7456 76.9557 60.871 77.1384 61.0091 77.302C61.1812 77.4954 61.2258 77.5485 61.5233 77.8014C61.8357 78.0564 62.2246 78.271 62.6241 78.4007C63.1213 78.5494 63.3551 78.5558 63.3785 78.5622C63.5995 78.5877 63.8353 78.5877 64.05 78.5643C64.1647 78.56 64.3517 78.5239 64.4048 78.5112L64.5111 78.4878L64.5132 78.492L64.3028 78.5919L62.8026 79.3357C60.6457 80.4555 58.3486 81.569 55.9665 82.5593C53.5759 83.5538 51.0811 84.4186 48.3016 84.9945C46.9034 85.2623 45.4265 85.462 43.7542 85.4131C42.1179 85.3473 40.0928 85.0413 38.1229 83.66C37.1646 82.9715 36.3231 82.0046 35.7897 81.0059C35.4114 80.1665 34.9801 79.3208 34.8058 78.4453C34.3043 76.69 34.3383 74.9752 34.4998 73.3687C34.9269 70.1748 36.1743 67.4548 37.6533 65.0344C40.7069 60.2383 44.8634 56.5472 49.5278 53.721C51.8121 52.4311 54.1177 51.1391 56.6954 50.2084C57.9406 49.6856 59.3049 49.3286 60.6415 48.9653C61.3257 48.8101 62.0355 48.7039 62.7303 48.5764C63.0831 48.5211 63.4252 48.4425 63.7843 48.4106L64.8681 48.349C66.3025 48.2173 67.7772 48.3299 69.2349 48.4574C70.6842 48.74 72.1419 48.9865 73.5104 49.5305C74.2053 49.7643 74.8959 50.0107 75.5271 50.3699C76.1688 50.7056 76.8233 51.0201 77.4374 51.3878C78.5998 52.2059 79.8025 52.973 80.7715 53.9569C82.854 55.7929 84.4244 57.9795 85.7929 60.198C86.4453 61.3263 87.0105 62.493 87.563 63.6489C88.0411 64.8453 88.4853 66.0481 88.8678 67.2614C88.9719 67.5887 88.7891 67.9393 88.4598 68.0413C88.243 68.1093 88.0178 68.0541 87.8605 67.9138L87.8329 67.8777Z" fill="#371A45"/>
<path d="M340.724 440.814C341.646 440.563 342.819 440.336 343.882 440.102L347.146 439.399C349.313 438.895 351.493 438.408 353.629 437.728C355.775 437.068 357.83 436.184 359.866 435.149C361.921 434.122 363.774 432.767 365.72 431.268L365.748 431.247C365.952 431.09 366.243 431.128 366.4 431.332C366.509 431.472 366.523 431.653 366.458 431.804C365.438 434.097 363.999 436.305 362.178 438.162C360.352 439.998 358.283 441.662 356.022 442.954C353.767 444.256 351.385 445.37 348.894 446.088C347.651 446.454 346.389 446.753 345.101 446.934C343.794 447.138 342.577 447.236 341.098 447.176C339.336 447.104 337.966 445.618 338.038 443.857C338.095 442.431 339.079 441.262 340.384 440.905L340.724 440.814Z" fill="#371A45"/>
<path d="M430.11 436.844C431.032 436.594 432.205 436.366 433.267 436.133L436.531 435.429C438.699 434.926 440.879 434.439 443.015 433.759C445.161 433.098 447.216 432.214 449.252 431.179C451.306 430.153 453.159 428.797 455.106 427.299L455.134 427.278C455.338 427.12 455.629 427.159 455.786 427.363C455.894 427.503 455.909 427.684 455.841 427.834C454.823 430.127 453.383 432.335 451.561 434.192C449.736 436.028 447.666 437.692 445.405 438.984C443.151 440.287 440.769 441.4 438.278 442.119C437.035 442.484 435.773 442.784 434.485 442.964C433.178 443.168 431.958 443.266 430.482 443.207C428.72 443.134 427.349 441.649 427.422 439.887C427.479 438.464 428.463 437.295 429.768 436.936L430.11 436.844Z" fill="#371A45"/>
<path d="M482.525 332.337C469.743 336.06 453.965 333.145 453.965 333.145C453.965 333.145 453.285 351.945 442.709 348.324C439.296 347.153 436.455 340.189 434.474 333.527C431.506 323.57 425.479 314.764 417.037 308.707C415.403 307.536 413.76 306.402 412.107 305.312C384.365 286.956 354.978 279.631 354.978 279.631L350.431 237.645L347.745 212.845L347.617 211.682C352.456 212.609 358.23 214.687 364.556 217.564C396.384 232.008 442.054 266.494 452.148 275.481C464.258 286.265 500.324 281.99 504.338 304.077C507.126 319.411 499.454 327.418 482.525 332.337Z" fill="white"/>
<g opacity="0.35">
<path opacity="0.35" d="M482.525 332.337C469.743 336.06 453.965 333.145 453.965 333.145C453.965 333.145 453.285 351.945 442.709 348.324C439.296 347.153 436.455 340.189 434.474 333.527C431.506 323.57 425.479 314.764 417.037 308.707C415.403 307.536 413.76 306.402 412.107 305.312C384.365 286.956 354.978 279.631 354.978 279.631C361.13 275.317 368.906 274.023 376.114 276.146C383.878 278.433 394.397 282.564 408.42 291.841C410.073 292.931 411.716 294.066 413.35 295.237C421.792 301.291 427.821 310.097 430.79 320.057C432.768 326.721 435.609 333.682 439.024 334.853C445.129 336.944 447.305 331.492 448.055 326.508C448.62 322.743 451.995 320.044 455.788 320.357C462.099 320.877 471.315 321.058 478.84 318.867C493.4 314.636 501.108 308.127 501.216 296.635C502.733 298.724 503.813 301.174 504.34 304.079C507.126 319.411 499.455 327.418 482.525 332.337Z" fill="#371A45"/>
</g>
<path d="M355.27 278.458C358.321 278.528 361.245 278.977 364.165 279.531C367.072 280.107 369.94 280.84 372.76 281.716C378.389 283.499 383.895 285.668 389.25 288.176C391.947 289.387 394.561 290.781 397.185 292.139L401.063 294.302L402.999 295.388L404.905 296.531L408.719 298.809L412.455 301.223L414.323 302.428L416.153 303.697L419.812 306.238C424.88 309.912 429.272 314.594 432.545 319.959C434.19 322.637 435.579 325.476 436.65 328.434C436.918 329.173 437.182 329.915 437.405 330.669L438.042 332.784C438.446 334.12 438.877 335.44 439.341 336.73C440.269 339.271 441.372 341.836 442.66 343.623C442.817 343.829 442.974 344.059 443.127 344.207L443.35 344.462C443.421 344.518 443.486 344.575 443.55 344.637C443.69 344.794 443.763 344.773 443.843 344.868C443.899 344.847 443.799 344.881 444.105 344.949C444.989 345.202 445.597 345.208 446.024 345.015C446.472 344.871 447.031 344.395 447.579 343.587C448.121 342.78 448.608 341.717 448.986 340.553C449.373 339.392 449.664 338.132 449.891 336.847C450.11 335.586 450.276 334.171 450.333 333.013L450.541 328.884L454.621 329.573C456.97 329.97 459.596 330.257 462.106 330.418C464.643 330.58 467.184 330.65 469.7 330.554C472.216 330.463 474.705 330.234 477.134 329.84C479.56 329.437 481.83 328.778 484.284 327.985C489.014 326.377 493.539 324.26 496.735 321.202C498.296 319.66 499.48 317.904 500.217 315.928C500.963 313.956 501.267 311.763 501.259 309.47C501.178 308.308 501.157 307.152 500.94 305.962C500.787 304.734 500.562 303.707 500.234 302.687C499.582 300.656 498.496 298.85 497.015 297.279C494.049 294.119 489.563 292.005 484.818 290.413C480.041 288.813 474.936 287.678 469.736 286.412C467.133 285.777 464.496 285.114 461.832 284.285C459.171 283.45 456.466 282.468 453.793 280.997L452.794 280.434L451.808 279.782C451.145 279.374 450.518 278.817 449.885 278.314L448.412 277.043L446.927 275.795C444.921 274.138 442.862 272.506 440.796 270.882C436.648 267.648 432.432 264.476 428.178 261.356C419.667 255.117 411.01 249.072 402.194 243.289C393.366 237.537 384.448 231.91 375.183 227.038C370.525 224.649 365.78 222.509 361.181 220.17C356.521 217.9 352.054 215.597 347.386 212.864L347.335 212.834C346.733 212.481 346.529 211.708 346.882 211.106C347.093 210.747 347.46 210.531 347.845 210.488C349.254 210.344 350.716 210.269 352.103 210.403C352.8 210.467 353.51 210.507 354.209 210.596C354.9 210.692 355.58 210.826 356.266 210.951C359.007 211.472 361.627 212.313 364.177 213.295C369.307 215.201 374.042 217.86 378.712 220.529C383.387 223.196 388.052 225.841 392.625 228.633C397.202 231.413 401.709 234.29 406.178 237.218C415.114 243.079 423.864 249.191 432.473 255.502C436.776 258.66 441.043 261.87 445.265 265.162C447.373 266.817 449.473 268.479 451.557 270.205L453.121 271.518L454.662 272.846C455.448 273.486 456.292 274.121 457.31 274.646C461.311 276.833 466.39 278.107 471.456 279.357C476.562 280.604 481.84 281.762 487.136 283.53C489.779 284.421 492.436 285.471 495.024 286.862C497.604 288.25 500.137 290.003 502.302 292.298C504.469 294.576 506.184 297.426 507.147 300.45C507.634 301.95 507.959 303.535 508.133 304.935C508.386 306.361 508.439 307.864 508.524 309.349C508.547 312.358 508.148 315.505 507.015 318.501C505.902 321.5 504.034 324.233 501.809 326.404C497.266 330.71 491.856 333.051 486.6 334.87C485.251 335.27 483.997 335.739 482.567 336.079C481.165 336.473 479.76 336.734 478.355 337C475.546 337.456 472.741 337.709 469.953 337.811C467.165 337.915 464.394 337.839 461.636 337.665C458.852 337.478 456.194 337.201 453.31 336.713L457.599 333.272C457.509 335.013 457.322 336.485 457.055 338.085C456.776 339.658 456.419 341.235 455.888 342.828C455.363 344.42 454.677 346.041 453.604 347.65C452.539 349.22 450.945 350.918 448.646 351.785C447.528 352.236 446.306 352.416 445.176 352.404C444.608 352.393 444.047 352.357 443.535 352.253C442.993 352.178 442.509 352.044 442.031 351.9C441.623 351.813 440.883 351.494 440.273 351.182C439.768 350.854 439.185 350.493 438.816 350.13L438.206 349.575L437.7 349.021C437.347 348.645 437.088 348.279 436.808 347.907C435.734 346.428 434.978 344.975 434.294 343.528C433.62 342.08 433.04 340.637 432.519 339.197C432.001 337.756 431.531 336.315 431.096 334.872L430.477 332.818C430.292 332.178 430.067 331.553 429.84 330.928C428.937 328.427 427.759 326.024 426.365 323.757C423.59 319.207 419.882 315.252 415.558 312.114C406.369 305.46 396.324 299.984 385.954 295.269C375.646 290.362 365.025 286.316 354.696 280.804L354.668 280.789C354.065 280.466 353.835 279.716 354.158 279.11C354.375 278.688 354.817 278.45 355.27 278.458Z" fill="#371A45"/>
<g opacity="0.35">
<path opacity="0.35" d="M364.558 217.566C363.806 218.882 363.024 220.191 362.225 221.487C361.562 222.558 360.882 223.629 360.191 224.672C357.178 229.256 353.918 233.578 350.433 237.645C324.47 267.948 286.333 283.698 247.943 282.092C245.501 281.983 243.059 281.811 240.618 281.565C233.909 280.893 227.22 279.686 220.611 277.925C215.145 276.463 209.718 274.629 204.389 272.406C198.199 269.829 192.142 266.741 186.26 263.111C185.761 262.803 185.27 262.484 184.771 262.168C180.531 244.411 179.152 232.265 179.152 232.265L155.104 212.719L131.837 193.809C122.668 165.54 123.358 134.239 135.233 105.562L249.57 216.16L326.597 196.705C326.597 196.705 335.356 201.935 347.749 212.847L347.622 211.684C352.456 212.609 358.23 214.687 364.558 217.566Z" fill="#371A45"/>
</g>
<g opacity="0.7">
<path opacity="0.7" d="M136.27 101.586C133.907 107.509 132.262 112.898 131.166 117.039C132.3 111.61 134.032 106.438 136.27 101.586Z" fill="white"/>
</g>
<path d="M124.332 177.238C130.792 197.613 142.367 216.455 158.65 231.7C161.972 234.806 165.476 237.762 169.173 240.546C170.969 241.906 172.826 243.224 174.722 244.516C180.453 248.379 186.382 251.711 192.463 254.526C197.697 256.966 203.05 259.012 208.46 260.691C214.992 262.718 221.629 264.189 228.299 265.13C230.732 265.466 233.168 265.736 235.605 265.94C280.208 269.593 325.42 249.701 352.205 209.946C391.673 151.392 376.19 71.9322 317.647 32.4668C306.365 24.8742 294.306 19.294 281.906 15.7006C280.461 15.2671 278.997 14.874 277.529 14.5106C273.604 13.5161 269.656 12.7107 265.693 12.1009C256.525 10.692 247.277 10.3031 238.129 10.8939C228.983 11.474 219.914 13.038 211.116 15.5455C208.318 16.3423 205.547 17.2285 202.799 18.2208C198.683 19.7083 194.639 21.3935 190.672 23.3123C170.897 32.8068 153.308 47.5266 140.165 67.0362C117.457 100.719 112.942 141.313 124.332 177.238Z" fill="white"/>
<g opacity="0.35">
<path opacity="0.35" d="M352.201 209.944C325.42 249.705 280.202 269.597 235.599 265.938C233.161 265.736 230.728 265.466 228.297 265.13C221.625 264.191 214.99 262.716 208.456 260.693C203.046 259.012 197.691 256.968 192.461 254.531C186.377 251.715 180.451 248.383 174.715 244.52C172.826 243.221 170.967 241.91 169.167 240.552C165.47 237.764 161.972 234.802 158.646 231.7C142.364 216.455 130.783 197.617 124.325 177.236C120.775 166.044 118.769 154.393 118.378 142.639C124.984 161.943 136.238 179.754 151.772 194.3C155.089 197.413 158.593 200.365 162.293 203.153C164.084 204.513 165.943 205.824 167.841 207.12C173.578 210.983 179.503 214.315 185.58 217.133C190.819 219.568 196.167 221.615 201.575 223.295C208.107 225.318 214.75 226.791 221.416 227.732C223.854 228.068 226.289 228.336 228.724 228.538C273.326 232.197 318.537 212.307 345.327 172.544C360.96 149.354 367.962 122.883 367.093 96.9221C379.65 133.538 375.5 175.385 352.201 209.944Z" fill="#371A45"/>
</g>
<path d="M246.051 270.001C242.481 270.001 238.901 269.856 235.307 269.561C232.808 269.35 230.286 269.072 227.802 268.73C220.855 267.748 213.989 266.212 207.381 264.161C201.735 262.412 196.199 260.279 190.927 257.82C184.641 254.909 178.502 251.445 172.69 247.529C170.544 246.067 168.682 244.732 166.978 243.442C163.262 240.644 159.621 237.584 156.168 234.354C139.851 219.077 127.645 199.708 120.87 178.339C108.649 139.796 114.584 98.4882 137.152 65.0111C150.199 45.6439 168.162 30.0953 189.099 20.042C193.056 18.1295 197.253 16.3679 201.562 14.8081C204.336 13.8094 207.213 12.8829 210.12 12.0563C219.166 9.47651 228.514 7.86789 237.896 7.2729C247.367 6.6609 256.906 7.07952 266.241 8.51601C270.304 9.14076 274.401 9.97589 278.417 10.9938C280.017 11.389 281.507 11.7928 282.945 12.2241C295.895 15.979 308.263 21.7802 319.67 29.4578C379.79 69.9857 395.732 151.864 355.212 211.978C330.679 248.392 289.571 270.001 246.051 270.001ZM127.793 176.142C134.194 196.329 145.722 214.623 161.132 229.05C164.396 232.103 167.837 234.996 171.358 237.648C172.973 238.872 174.739 240.134 176.768 241.517C182.244 245.208 188.043 248.481 193.989 251.233C198.972 253.555 204.2 255.57 209.533 257.223C215.772 259.159 222.256 260.61 228.805 261.537C231.149 261.86 233.544 262.125 235.907 262.323C280.695 265.999 324.111 245.145 349.19 207.919C387.472 151.124 372.41 73.7682 315.613 35.48C304.833 28.2232 293.15 22.7428 280.891 19.1877C279.535 18.7819 278.16 18.4079 276.655 18.0381C272.837 17.0691 268.969 16.2829 265.136 15.6921C256.321 14.3364 247.311 13.9432 238.359 14.5191C229.489 15.0801 220.658 16.6016 212.109 19.039C209.361 19.821 206.643 20.6943 204.03 21.6378C199.956 23.1105 195.993 24.7743 192.253 26.5827C172.469 36.0793 155.503 50.7693 143.176 69.0677C121.852 100.696 116.246 139.724 127.793 176.142Z" fill="#371A45"/>
<path d="M246.051 270.001C242.481 270.001 238.901 269.856 235.307 269.561C232.808 269.35 230.286 269.072 227.802 268.73C220.855 267.748 213.989 266.212 207.381 264.161C201.735 262.412 196.199 260.279 190.927 257.82C184.641 254.909 178.502 251.445 172.69 247.529C170.544 246.067 168.682 244.732 166.978 243.442C163.262 240.644 159.621 237.584 156.168 234.354C139.851 219.077 127.645 199.708 120.87 178.339C108.649 139.796 114.584 98.4882 137.152 65.0111C150.199 45.6439 168.162 30.0953 189.099 20.042C193.056 18.1295 197.253 16.3679 201.562 14.8081C204.336 13.8094 207.213 12.8829 210.12 12.0563C219.166 9.47651 228.514 7.86789 237.896 7.2729C247.367 6.6609 256.906 7.07952 266.241 8.51601C270.304 9.14076 274.401 9.97589 278.417 10.9938C280.017 11.389 281.507 11.7928 282.945 12.2241C295.895 15.979 308.263 21.7802 319.67 29.4578C379.79 69.9857 395.732 151.864 355.212 211.978C330.679 248.392 289.571 270.001 246.051 270.001ZM127.793 176.142C134.194 196.329 145.722 214.623 161.132 229.05C164.396 232.103 167.837 234.996 171.358 237.648C172.973 238.872 174.739 240.134 176.768 241.517C182.244 245.208 188.043 248.481 193.989 251.233C198.972 253.555 204.2 255.57 209.533 257.223C215.772 259.159 222.256 260.61 228.805 261.537C231.149 261.86 233.544 262.125 235.907 262.323C280.695 265.999 324.111 245.145 349.19 207.919C387.472 151.124 372.41 73.7682 315.613 35.48C304.833 28.2232 293.15 22.7428 280.891 19.1877C279.535 18.7819 278.16 18.4079 276.655 18.0381C272.837 17.0691 268.969 16.2829 265.136 15.6921C256.321 14.3364 247.311 13.9432 238.359 14.5191C229.489 15.0801 220.658 16.6016 212.109 19.039C209.361 19.821 206.643 20.6943 204.03 21.6378C199.956 23.1105 195.993 24.7743 192.253 26.5827C172.469 36.0793 155.503 50.7693 143.176 69.0677C121.852 100.696 116.246 139.724 127.793 176.142Z" fill="#371A45"/>
<path d="M138.157 206.944C201.871 272.449 308.966 254.977 331.253 167.257C346.415 107.579 299.688 46.6575 241.438 35.7648C199.042 27.8386 154.184 38.6441 123.892 101.081C123.892 101.081 114.75 130.79 119.104 152.571C123.458 174.353 131.368 194.801 131.368 194.801L138.157 206.944Z" fill="#371A45"/>
<g opacity="0.35">
<path opacity="0.35" d="M331.249 167.255C308.966 254.973 201.866 272.442 138.155 206.946L136.782 204.483C214.958 234.443 304.907 201.438 329.09 113.168C334.717 130.306 335.924 148.838 331.249 167.255Z" fill="#111A28"/>
</g>
<path d="M229.211 263.292C216.667 263.292 203.945 261.552 191.473 258.022L190.935 257.822C184.641 254.907 178.502 251.445 172.692 247.529C170.546 246.067 168.685 244.732 166.98 243.442C163.262 240.644 159.624 237.584 156.171 234.354C139.853 219.077 127.647 199.708 120.872 178.339C108.651 139.796 114.587 98.4882 137.154 65.0111C150.201 45.6439 168.164 30.0953 189.102 20.042L189.442 19.8784L189.807 19.7891C206.261 15.7537 224.498 15.5561 244.009 19.2047C278.774 25.7051 311.448 48.2406 331.41 79.4844C349.762 108.206 355.586 140.873 347.811 171.471C339.362 204.714 320.103 230.816 292.119 246.951C273.379 257.752 251.583 263.292 229.211 263.292ZM193.728 251.112C226.484 260.306 261.009 256.501 288.492 240.654C314.74 225.52 332.817 200.979 340.773 169.678C348.049 141.048 342.549 110.403 325.29 83.3901C306.388 53.806 275.504 32.4774 242.675 26.3405C224.328 22.9107 207.249 23.0488 191.902 26.7506C172.274 36.2493 155.431 50.8735 143.176 69.0656C121.854 100.696 116.248 139.722 127.796 176.14C134.196 196.327 145.724 214.621 161.135 229.048C164.399 232.101 167.839 234.993 171.36 237.645C172.975 238.869 174.741 240.132 176.77 241.515C182.161 245.153 187.873 248.385 193.728 251.112Z" fill="#371A45"/>
<path d="M228.918 250.206C195.081 250.206 161.152 235.792 135.554 209.474L135.22 209.132L127.982 196.11C127.655 195.265 119.91 175.12 115.545 153.283C111.063 130.858 120.039 101.261 120.422 100.012L120.626 99.4955C147.195 44.7344 188.069 22.0926 242.105 32.1948C273.143 37.9982 302.311 58.1134 320.129 85.9996C336.514 111.646 341.716 140.82 334.772 168.15C324.748 207.602 297.126 236.079 258.986 246.281C249.122 248.921 239.024 250.206 228.918 250.206ZM141.092 204.751C172.484 236.798 216.896 250.021 257.11 239.265C292.635 229.762 318.375 203.189 327.732 166.36C334.175 140.997 329.302 113.846 314.007 89.9075C297.249 63.6787 269.868 44.7727 240.769 39.3306C190.43 29.919 152.25 51.1391 127.286 102.4C126.427 105.312 118.752 132.286 122.664 151.857C126.657 171.837 133.79 190.949 134.666 193.256L141.092 204.751Z" fill="#371A45"/>
<path d="M387.473 175.674C392.009 150.833 381.053 128.024 363.003 124.728C344.953 121.433 326.643 138.899 322.108 163.74C317.573 188.58 328.529 211.389 346.579 214.685C364.629 217.98 382.938 200.514 387.473 175.674Z" fill="white"/>
<path d="M350.958 218.695C350.199 218.695 349.436 218.665 348.674 218.601C340.582 217.94 333.34 213.928 327.73 206.999C319.542 196.886 316.002 182.13 318.014 166.513C321.478 139.645 340.728 119.137 360.939 120.779C369.031 121.44 376.273 125.452 381.883 132.382C390.071 142.495 393.611 157.251 391.598 172.867C388.266 198.722 370.31 218.695 350.958 218.695ZM358.597 127.945C342.845 127.945 328.089 145.185 325.22 167.44C323.486 180.898 326.535 193.977 333.376 202.428C337.706 207.777 343.202 210.866 349.266 211.361C365.667 212.696 381.422 195.014 384.397 171.936C386.131 158.479 383.081 145.4 376.241 136.948C371.91 131.6 366.415 128.51 360.35 128.015C359.764 127.968 359.18 127.945 358.597 127.945Z" fill="#371A45"/>
<path d="M391.953 178.018C395.913 159.873 387.282 142.58 372.675 139.393C358.068 136.205 343.018 148.331 339.058 166.476C335.098 184.621 343.729 201.914 358.336 205.102C372.943 208.289 387.994 196.164 391.953 178.018Z" fill="white"/>
<g opacity="0.35">
<path opacity="0.35" d="M337.613 186.816C336.803 179.988 337.862 172.914 340.322 166.46C343.48 181.873 356.128 189.625 369.724 183.898C378.511 180.203 385.668 171.72 389.467 161.73C389.673 162.701 389.83 163.715 389.954 164.75C392.009 182.136 381.957 201.172 367.501 207.262C353.047 213.355 339.668 204.192 337.613 186.816Z" fill="#371A45"/>
</g>
<path d="M361.619 214.509C361.092 214.509 360.563 214.489 360.032 214.449C353.984 214.003 348.544 211.007 344.296 205.783C337.666 197.628 334.759 184.846 336.521 171.592C339.523 148.993 354.409 132.216 370.372 133.391C376.42 133.837 381.86 136.834 386.107 142.059C392.737 150.215 395.644 162.997 393.883 176.25C390.98 198.097 376.985 214.509 361.619 214.509ZM368.842 140.597C357.424 140.597 346.064 154.896 343.72 172.548C342.218 183.858 344.54 194.57 349.934 201.202C352.887 204.836 356.564 206.912 360.567 207.207C372.291 208.074 384.271 193.458 386.685 175.292C388.188 163.983 385.865 153.273 380.474 146.638C377.52 143.005 373.844 140.929 369.841 140.633C369.505 140.608 369.173 140.597 368.842 140.597Z" fill="#371A45"/>
<g opacity="0.7">
<path opacity="0.7" d="M267.227 63.4704C267.227 63.4704 209.567 56.4516 172.093 83.3944C172.053 83.422 172.014 83.4517 171.974 83.4794C164.093 89.1573 157.888 96.8668 153.958 105.749C148.759 117.496 146.897 126.353 145.56 134.214C141.502 158.122 144.071 170.083 144.071 170.083C132.617 155.143 127.39 139.501 130.573 119.555C130.892 117.59 131.293 115.575 131.771 113.52C131.88 113.047 131.999 112.579 132.124 112.109C132.114 112.103 132.122 112.092 132.135 112.082C133.395 107.987 135.252 102.668 137.851 96.8456C145.675 79.2761 160.172 57.087 185.1 49.8811C231.71 36.4023 269.62 61.3072 267.227 63.4704Z" fill="white"/>
</g>
<g opacity="0.7">
<path opacity="0.7" d="M301.637 149.387C311.034 148.508 317.822 138.917 316.798 127.966C315.774 117.014 307.326 108.848 297.928 109.727C288.531 110.606 281.743 120.196 282.767 131.148C283.791 142.099 292.239 150.265 301.637 149.387Z" fill="white"/>
</g>
<g opacity="0.7">
<path opacity="0.7" d="M304.609 173.683C308.445 172.994 310.904 168.812 310.101 164.341C309.298 159.871 305.537 156.805 301.701 157.494C297.864 158.183 295.405 162.366 296.208 166.837C297.011 171.307 300.772 174.373 304.609 173.683Z" fill="white"/>
</g>
<path d="M267.097 337.078C267.422 338.54 272.11 349.877 272.11 349.877C272.11 349.877 275.848 349.042 280.436 348.02C286.169 346.741 289.49 339.768 287.856 332.446C286.222 325.123 280.251 320.225 274.518 321.504C270.648 322.367 266.192 323.361 266.192 323.361C266.192 323.361 266.566 334.698 267.097 337.078Z" fill="#22A7F0"/>
<g opacity="0.35">
<path opacity="0.35" d="M267.097 337.078C267.422 338.54 272.11 349.877 272.11 349.877C272.11 349.877 275.848 349.042 280.436 348.02C286.169 346.741 289.49 339.768 287.856 332.446C286.222 325.123 280.251 320.225 274.518 321.504C270.648 322.367 266.192 323.361 266.192 323.361C266.192 323.361 266.566 334.698 267.097 337.078Z" fill="#371A45"/>
</g>
<path d="M272.11 352.002C271.266 352.002 270.482 351.496 270.147 350.689C269.031 347.99 265.363 339.063 265.023 337.541C264.464 335.038 264.107 324.613 264.069 323.434C264.035 322.414 264.732 321.513 265.731 321.29L274.054 319.43C280.922 317.9 288.043 323.529 289.93 331.982C290.823 335.984 290.432 340.045 288.827 343.413C287.138 346.957 284.322 349.329 280.899 350.094L272.573 351.953C272.418 351.985 272.263 352.002 272.11 352.002ZM269.169 336.613C269.365 337.418 271.362 342.463 273.394 347.414L279.972 345.946C282.093 345.472 283.876 343.925 284.99 341.585C286.188 339.071 286.469 335.99 285.782 332.909C284.405 326.742 279.56 322.554 274.981 323.58L268.381 325.053C268.549 329.375 268.859 335.215 269.169 336.613Z" fill="#371A45"/>
<path d="M272.094 349.902C277.827 348.623 281.15 341.65 279.516 334.329C277.882 327.007 271.91 322.109 266.177 323.388C260.444 324.667 257.121 331.64 258.755 338.961C260.389 346.283 266.361 351.181 272.094 349.902Z" fill="#22A7F0"/>
<g opacity="0.35">
<path opacity="0.35" d="M279.53 334.305C281.167 341.621 277.845 348.598 272.114 349.879C266.375 351.161 260.403 346.26 258.774 338.933C258.55 337.945 258.423 336.957 258.38 335.99C260.977 340.691 265.576 343.426 270.025 342.427C274.977 341.322 278.137 335.971 277.837 329.804C278.587 331.154 279.161 332.671 279.53 334.305Z" fill="#371A45"/>
</g>
<path d="M279.531 334.305C279.643 334.802 279.73 335.3 279.79 335.795C277.372 330.312 272.35 326.98 267.509 328.064C262.169 329.26 258.912 335.399 259.836 342.157C259.386 341.145 259.031 340.07 258.774 338.933C257.137 331.617 260.459 324.639 266.19 323.359C271.923 322.086 277.892 326.98 279.531 334.305Z" fill="white"/>
<path d="M270.244 352.208C267.571 352.208 264.908 351.203 262.556 349.276C259.672 346.911 257.59 343.402 256.697 339.401C254.81 330.948 258.863 322.824 265.729 321.29C272.59 319.764 279.718 325.386 281.604 333.842C282.497 337.845 282.106 341.904 280.502 345.272C278.812 348.817 275.997 351.188 272.573 351.953C271.802 352.123 271.022 352.208 270.244 352.208ZM268.051 325.282C267.586 325.282 267.118 325.333 266.655 325.437C262.076 326.46 259.468 332.308 260.845 338.474C261.532 341.553 263.098 344.222 265.251 345.99C267.254 347.633 269.524 348.279 271.647 347.803C273.768 347.329 275.55 345.782 276.664 343.443C277.862 340.929 278.143 337.847 277.457 334.766C276.22 329.224 272.182 325.282 268.051 325.282Z" fill="#371A45"/>
<path d="M255.369 380.358C254.19 380.358 253.104 379.578 252.771 378.386L245.728 353.294C245.342 351.919 244.309 350.808 243.03 350.393L233.187 347.206C230.926 346.475 229.211 344.63 228.601 342.278L219.438 306.916C219.064 305.471 219.931 303.998 221.376 303.624C222.815 303.25 224.294 304.117 224.668 305.562L233.831 340.924C233.973 341.473 234.364 341.913 234.85 342.07L244.693 345.257C247.717 346.237 250.048 348.695 250.93 351.838L257.973 376.93C258.374 378.367 257.537 379.859 256.103 380.26C255.856 380.324 255.612 380.358 255.369 380.358Z" fill="#371A45"/>
</svg>
