<svg width="29" height="29" viewBox="0 0 29 29" fill="none" xmlns="http://www.w3.org/2000/svg">
<path d="M15.7351 28.9381C14.9426 28.9381 14.1502 28.9381 13.3578 28.9381C13.2854 28.92 13.2137 28.8989 13.1405 28.8845C12.1345 28.6846 11.1043 28.5661 10.1278 28.2702C7.59056 27.502 5.44727 26.0907 3.67755 24.112C1.935 22.1634 0.793922 19.9167 0.280741 17.3561C0.168293 16.7953 0.0928255 16.2263 0 15.6611C0 14.8702 0 14.0793 0 13.2884C0.0482994 12.9638 0.0943349 12.6393 0.144144 12.3156C0.473184 10.17 1.23843 8.19352 2.45723 6.39436C2.56063 6.24116 2.56138 6.12494 2.4761 5.95891C1.96141 4.96047 2.14933 3.76733 2.92815 2.98548C3.74396 2.16741 4.93409 1.95836 5.94461 2.47758C6.13705 2.57644 6.26233 2.55003 6.42986 2.44211C6.82456 2.18627 7.22303 1.93195 7.63886 1.71158C10.2229 0.336555 12.979 -0.191721 15.8913 0.0610968C17.7085 0.218825 19.43 0.721441 21.051 1.54178C22.7415 2.39758 24.2063 3.55073 25.4515 4.98462C27.1126 6.89698 28.2024 9.0863 28.7042 11.5662C28.8159 12.1178 28.8884 12.6771 28.9789 13.2325C28.9789 14.0611 28.9789 14.8898 28.9789 15.7184C28.9608 15.7999 28.9336 15.8807 28.9253 15.9637C28.7502 17.7545 28.2506 19.4548 27.4318 21.0532C26.5738 22.7286 25.4244 24.1829 23.9958 25.4191C22.0796 27.0763 19.8865 28.1638 17.4037 28.6642C16.852 28.7751 16.292 28.8476 15.7351 28.9381ZM1.68293 14.4709C1.70633 14.7139 1.74255 14.9562 1.75086 15.2C1.80972 16.9614 2.28668 18.6164 3.06551 20.1846C3.74924 21.5619 4.67524 22.7611 5.8065 23.8124C6.92493 24.8523 8.17695 25.6734 9.58442 26.2507C11.7488 27.1382 13.9933 27.4265 16.3162 27.0809C19.6088 26.5911 22.3211 25.05 24.4041 22.4826C26.7285 19.6178 27.628 16.3101 27.1133 12.6544C26.6371 9.26969 24.9957 6.52492 22.3151 4.4239C19.6684 2.34928 16.6241 1.50027 13.2854 1.77875C11.1934 1.95308 9.25916 2.64814 7.49472 3.79751C7.2985 3.92505 7.2502 4.06316 7.29397 4.29183C7.63207 6.07362 6.08045 7.62977 4.30167 7.29092C4.05866 7.24489 3.91754 7.29998 3.78547 7.50374C2.40969 9.62514 1.74104 11.9533 1.68293 14.4709Z" fill="white"/>
<path d="M14.6891 23.8621C12.2258 23.8191 10.1504 23.0961 8.37922 21.5686C6.53705 19.98 5.4488 17.9718 5.17032 15.5621C4.85864 12.8619 5.60879 10.456 7.37549 8.38513C8.95504 6.5339 10.9776 5.46452 13.3873 5.17246C16.0505 4.85022 18.4293 5.57622 20.4986 7.27802C21.894 8.42588 22.8728 9.86657 23.4185 11.5903C23.4969 11.8385 23.6237 11.9706 23.8765 12.0597C24.9512 12.4385 25.5987 13.397 25.5859 14.538C25.5738 15.5976 24.8788 16.553 23.8358 16.9032C23.6094 16.9794 23.5 17.1017 23.4336 17.319C22.934 18.9431 22.0291 20.3181 20.7695 21.4456C19.2511 22.8048 17.4663 23.5987 15.4279 23.7987C15.1366 23.8281 14.8461 23.8493 14.6891 23.8621ZM14.3631 6.83276C14.1231 6.85162 13.7933 6.86068 13.4673 6.90445C11.3949 7.18217 9.71424 8.16024 8.43205 9.79714C7.34455 11.1865 6.82231 12.7751 6.84496 14.5471C6.87665 16.9945 7.87056 18.9778 9.76632 20.4894C11.4915 21.8645 13.4997 22.3807 15.6656 22.0139C18.5734 21.5211 20.565 19.8366 21.6782 17.1092C21.7899 16.8345 21.7068 16.6934 21.4865 16.5296C20.0684 15.4753 20.0896 13.3932 21.5303 12.3781C21.7461 12.2257 21.7725 12.0914 21.6842 11.8642C21.2299 10.6975 20.565 9.68016 19.6285 8.83567C18.1568 7.50518 16.4294 6.85917 14.3631 6.83276Z" fill="white"/>
<path d="M14.4876 10.1814C16.9146 10.2652 18.7666 12.0168 18.7726 14.4672C18.7787 16.8912 16.9561 18.7349 14.5019 18.75C12.1043 18.7644 10.2108 16.8943 10.2055 14.4808C10.2002 12.0877 12.062 10.2599 14.4876 10.1814Z" fill="white"/>
</svg>
