<svg width="19" height="19" viewBox="0 0 19 19" fill="none" xmlns="http://www.w3.org/2000/svg">
<path fill-rule="evenodd" clip-rule="evenodd" d="M16.6787 7.61747e-05C17.9599 7.61747e-05 19 -1.2811 19 6.83069e-05V19.0001C19 20.2812 17.9598 19.0001 16.6787 19.0001H2.32134C1.04018 19.0001 0 20.2812 0 19.0001V7.61747e-05C0 -1.28109 1.04014 7.61747e-05 2.32134 7.61747e-05H16.6787ZM9.5 3.00594C7.7363 3.00594 7.51513 3.01339 6.82248 3.04501C6.13125 3.07656 5.65918 3.18632 5.24608 3.3469C4.81902 3.51285 4.45687 3.73491 4.09584 4.09591C3.7348 4.45695 3.51274 4.81914 3.34678 5.24615C3.18625 5.65926 3.07648 6.13133 3.0449 6.82256C3.01332 7.51521 3.00586 7.73638 3.00586 9.50008C3.00586 11.2638 3.01332 11.4849 3.0449 12.1776C3.07648 12.8688 3.18625 13.3409 3.34678 13.754C3.51274 14.181 3.7348 14.5432 4.09584 14.9042C4.45687 15.2653 4.81902 15.4873 5.24608 15.6533C5.65918 15.8138 6.13125 15.9236 6.82248 15.9551C7.51513 15.9868 7.7363 15.9942 9.5 15.9942C11.2637 15.9942 11.4849 15.9868 12.1775 15.9551C12.8688 15.9236 13.3408 15.8138 13.7539 15.6533C14.1809 15.4873 14.5431 15.2653 14.9042 14.9042C15.2652 14.5432 15.4873 14.181 15.6532 13.754C15.8138 13.3409 15.9235 12.8688 15.9551 12.1776C15.9867 11.4849 15.9941 11.2638 15.9941 9.50008C15.9941 7.73638 15.9867 7.51521 15.9551 6.82256C15.9235 6.13133 15.8138 5.65926 15.6532 5.24615C15.4873 4.81914 15.2652 4.45695 14.9042 4.09591C14.5431 3.73491 14.1809 3.51285 13.7539 3.3469C13.3408 3.18632 12.8688 3.07656 12.1775 3.04501C11.4849 3.01339 11.2637 3.00594 9.5 3.00594ZM9.5 4.17607C11.234 4.17607 11.4394 4.18267 12.1242 4.21392C12.7573 4.24283 13.1012 4.34863 13.3301 4.4375C13.6332 4.55533 13.8495 4.69608 14.0768 4.9233C14.304 5.15056 14.4448 5.36691 14.5626 5.67002C14.6515 5.89887 14.7573 6.24273 14.7862 6.87589C14.8174 7.56067 14.824 7.76607 14.824 9.50008C14.824 11.2341 14.8174 11.4395 14.7862 12.1243C14.7573 12.7574 14.6515 13.1013 14.5626 13.3301C14.4448 13.6333 14.304 13.8496 14.0768 14.0769C13.8495 14.3041 13.6332 14.4448 13.3301 14.5627C13.1012 14.6516 12.7573 14.7574 12.1242 14.7862C11.4395 14.8175 11.2341 14.8241 9.5 14.8241C7.76588 14.8241 7.56052 14.8175 6.87581 14.7862C6.24265 14.7574 5.89879 14.6516 5.66994 14.5627C5.36679 14.4448 5.15048 14.3041 4.92323 14.0769C4.69597 13.8496 4.55521 13.6333 4.43743 13.3301C4.34851 13.1013 4.24271 12.7574 4.21381 12.1243C4.18256 11.4395 4.17596 11.2341 4.17596 9.50008C4.17596 7.76607 4.18256 7.56067 4.21381 6.87589C4.24271 6.24273 4.34851 5.89887 4.43743 5.67002C4.55521 5.36691 4.69597 5.15056 4.92323 4.9233C5.15048 4.69608 5.36679 4.55533 5.66994 4.4375C5.89879 4.34863 6.24265 4.24283 6.87581 4.21392C7.56059 4.18267 7.76599 4.17607 9.5 4.17607ZM9.5 6.16524C7.65822 6.16524 6.16517 7.6583 6.16517 9.50008C6.16517 11.3419 7.65822 12.8349 9.5 12.8349C11.3418 12.8349 12.8348 11.3419 12.8348 9.50008C12.8348 7.6583 11.3418 6.16524 9.5 6.16524ZM9.5 11.6648C8.30445 11.6648 7.3353 10.6956 7.3353 9.50008C7.3353 8.30452 8.30445 7.33538 9.5 7.33538C10.6956 7.33538 11.6647 8.30452 11.6647 9.50008C11.6647 10.6956 10.6956 11.6648 9.5 11.6648ZM13.7459 6.0335C13.7459 6.4639 13.397 6.81276 12.9666 6.81276C12.5362 6.81276 12.1873 6.4639 12.1873 6.0335C12.1873 5.60311 12.5362 5.25421 12.9666 5.25421C13.397 5.25421 13.7459 5.60311 13.7459 6.0335Z" fill="white"/>
</svg>
