<svg width="19" height="19" viewBox="0 0 19 19" fill="none" xmlns="http://www.w3.org/2000/svg">
<path fill-rule="evenodd" clip-rule="evenodd" d="M16.6787 6.8903e-05C17.9599 6.8903e-05 19 -1.2811 19 6.10352e-05V19.0001C19 20.2812 17.9598 19.0001 16.6787 19.0001H2.32134C1.04018 19.0001 0 20.2812 0 19.0001V6.8903e-05C0 -1.2811 1.04014 6.8903e-05 2.32134 6.8903e-05H16.6787ZM7.25559 15.7546C12.3002 15.7546 15.0585 11.5745 15.0585 7.95172C15.0585 7.8323 15.0585 7.71284 15.0528 7.5991C15.5874 7.21239 16.0538 6.72896 16.4235 6.1773C15.9344 6.39342 15.4054 6.5413 14.8481 6.60955C15.4168 6.26829 15.849 5.73369 16.0538 5.09103C15.5249 5.40382 14.9391 5.63134 14.3135 5.75644C13.813 5.22184 13.1021 4.89198 12.3116 4.89198C10.7988 4.89198 9.57032 6.12044 9.57032 7.63324C9.57032 7.84937 9.59307 8.05978 9.64424 8.25883C7.36365 8.14509 5.34468 7.05315 3.99111 5.39247C3.75792 5.79626 3.62143 6.26829 3.62143 6.76878C3.62143 7.71856 4.10485 8.56027 4.84418 9.04938C4.3949 9.03798 3.97404 8.91289 3.60436 8.70812V8.74226C3.60436 10.0731 4.54846 11.1764 5.80535 11.4323C5.57787 11.4949 5.33332 11.529 5.08306 11.529C4.90675 11.529 4.73616 11.512 4.56553 11.4778C4.91246 12.5698 5.92477 13.3603 7.12478 13.383C6.18639 14.1167 5.00346 14.5546 3.71814 14.5546C3.49633 14.5546 3.28021 14.5433 3.06408 14.5148C4.26409 15.2997 5.70865 15.7546 7.25559 15.7546Z" fill="white"/>
</svg>
