<svg width="19" height="19" viewBox="0 0 19 19" fill="none" xmlns="http://www.w3.org/2000/svg">
<path fill-rule="evenodd" clip-rule="evenodd" d="M19 0C20.2812 0 19 1.04018 19 2.32134V19C19 20.2812 17.9598 19 16.6787 19H12.7277V11.841H15.1992L15.6694 8.77503H12.7277V6.78534C12.7277 5.94655 13.1386 5.12892 14.4563 5.12892H15.7938V2.51865C15.7938 2.51865 14.5799 2.31151 13.4194 2.31151C10.9966 2.31151 9.41309 3.77989 9.41309 6.43822V8.77503H6.71995V11.841H9.41309V19H2.32134C1.04018 19 -6.61612e-06 20.2812 -6.61612e-06 19L4.76837e-07 2.32134C4.76837e-07 1.04018 -1.28121 0 -6.61612e-06 0H19Z" fill="white"/>
</svg>
