<svg width="1440" height="719" viewBox="0 0 1440 719" fill="none" xmlns="http://www.w3.org/2000/svg">
<g opacity="0.1">
<path d="M685.755 512.052C670.124 512.052 657.377 498.217 657.377 481.229C657.377 479.516 658.673 478.119 660.261 478.119C661.849 478.119 663.145 479.516 663.145 481.229C663.145 494.793 673.3 505.833 685.755 505.833C698.209 505.833 708.365 494.793 708.365 481.229C708.365 479.516 709.661 478.119 711.249 478.119C712.837 478.119 714.132 479.516 714.132 481.229C714.132 498.217 701.385 512.052 685.755 512.052Z" fill="#1A1A5E"/>
<path d="M711.249 80.709C692.065 80.709 676.435 63.7653 676.435 42.9462C676.435 22.1271 692.065 5.18341 711.249 5.18341C712.837 5.18341 714.132 6.58036 714.132 8.29276C714.132 10.0051 712.837 11.4021 711.249 11.4021C695.242 11.4021 682.202 25.5519 682.202 42.9462C682.202 60.3405 695.242 74.4903 711.249 74.4903C712.837 74.4903 714.132 75.8872 714.132 77.5996C714.132 79.312 712.837 80.709 711.249 80.709Z" fill="#6CBFED"/>
<path d="M277.517 68.2716C261.259 68.2716 248.011 53.9866 248.011 36.412C248.011 34.6996 249.306 33.3027 250.894 33.3027C252.483 33.3027 253.778 34.6996 253.778 36.412C253.778 50.5618 264.435 62.0529 277.517 62.0529C290.598 62.0529 301.255 50.5618 301.255 36.412V3.96668C301.255 2.25428 302.551 0.85733 304.139 0.85733C305.727 0.85733 307.023 2.25428 307.023 3.96668V36.4571C306.981 53.9866 293.774 68.2716 277.517 68.2716Z" fill="#1A1A5E"/>
<path d="M62.5316 681.804C27.8849 681.804 -0.325684 651.567 -0.325684 614.39C-0.325684 577.213 27.8849 546.976 62.5316 546.976H117.406C118.994 546.976 120.29 548.373 120.29 550.085C120.29 551.797 118.994 553.194 117.406 553.194H62.5316C31.0612 553.194 5.4418 580.638 5.4418 614.39C5.4418 648.142 31.0612 675.586 62.5316 675.586C64.1197 675.586 65.4153 676.983 65.4153 678.695C65.4153 680.407 64.1197 681.804 62.5316 681.804Z" fill="#F1FDFF"/>
<path d="M58.8537 637.823C46.2739 637.823 36.0345 627.098 36.0345 613.894C36.0345 600.691 46.2739 589.966 58.8537 589.966H80.1684C81.7565 589.966 83.0521 591.363 83.0521 593.075C83.0521 594.787 81.7565 596.184 80.1684 596.184H58.8537C49.4502 596.184 41.802 604.116 41.802 613.894C41.802 623.628 49.4502 631.604 58.8537 631.604C60.4419 631.604 61.7375 633.001 61.7375 634.713C61.7375 636.426 60.4419 637.823 58.8537 637.823Z" fill="#1A1A5E"/>
<path d="M711.249 227.524C709.661 227.524 708.365 226.127 708.365 224.415V143.932C708.365 129.918 697.708 118.517 684.626 118.517C671.545 118.517 660.888 129.918 660.888 143.932V156.37C660.888 158.082 659.592 159.479 658.004 159.479C656.416 159.479 655.12 158.082 655.12 156.37V143.932C655.12 126.493 668.369 112.298 684.626 112.298C700.884 112.298 714.132 126.493 714.132 143.932V224.415C714.132 226.127 712.837 227.524 711.249 227.524Z" fill="#A5EBFD"/>
<path d="M164.34 681.804H159.576C144.029 681.804 131.365 668.15 131.365 651.342C131.365 634.533 144.029 620.879 159.576 620.879H216.164C235.222 620.879 250.727 604.161 250.727 583.567C250.727 581.854 252.023 580.457 253.611 580.457C255.199 580.457 256.495 581.854 256.495 583.567C256.495 607.585 238.398 627.098 216.164 627.098H159.618C147.247 627.098 137.175 637.958 137.175 651.342C137.175 664.725 147.247 675.585 159.618 675.585H164.382C165.97 675.585 167.266 676.982 167.266 678.695C167.266 680.407 165.928 681.804 164.34 681.804ZM253.402 546.21H220.552C198.945 546.21 181.35 527.328 181.35 504.166C181.35 480.958 198.945 462.122 220.552 462.122H300.127C301.715 462.122 303.011 463.519 303.011 465.231C303.011 466.944 301.715 468.341 300.127 468.341H220.552C202.122 468.341 187.118 484.428 187.118 504.166C187.118 523.948 202.122 539.991 220.552 539.991H253.402C254.99 539.991 256.286 541.388 256.286 543.1C256.286 544.813 254.99 546.21 253.402 546.21ZM300.127 427.108C298.539 427.108 297.243 425.711 297.243 423.999C297.243 403.225 281.571 386.326 262.346 386.326H237.312C201.077 386.326 171.612 354.512 171.612 315.397V284.664C171.612 282.952 172.908 281.555 174.496 281.555C176.084 281.555 177.38 282.952 177.38 284.664V315.397C177.38 351.087 204.253 380.107 237.312 380.107H262.346C284.789 380.107 303.011 399.8 303.011 423.999C303.011 425.711 301.715 427.108 300.127 427.108Z" fill="#A5EBFD"/>
<path d="M262.429 213.645C251.062 213.645 241.825 203.686 241.825 191.429C241.825 179.171 251.062 169.213 262.429 169.213C273.797 169.213 283.033 179.171 283.033 191.429C283.033 203.686 273.797 213.645 262.429 213.645ZM262.429 175.386C254.238 175.386 247.593 182.551 247.593 191.384C247.593 200.216 254.238 207.381 262.429 207.381C270.621 207.381 277.266 200.216 277.266 191.384C277.266 182.551 270.621 175.386 262.429 175.386Z" fill="#1A1A5E"/>
<path d="M311.202 605.783C295.446 605.783 282.616 592.039 282.616 575.185C282.616 558.331 295.446 544.587 311.202 544.587C326.958 544.587 339.789 558.331 339.789 575.185C339.831 592.039 327 605.783 311.202 605.783ZM311.202 550.761C298.622 550.761 288.383 561.711 288.383 575.14C288.383 588.569 298.622 599.519 311.202 599.519C323.782 599.519 334.022 588.569 334.022 575.14C334.063 561.711 323.824 550.761 311.202 550.761Z" fill="#6CBFED"/>
<path d="M83.2611 159.614C66.2512 159.614 52.4175 144.698 52.4175 126.358C52.4175 108.017 66.2512 93.1013 83.2611 93.1013C100.271 93.1013 114.105 108.017 114.105 126.358C114.105 144.698 100.229 159.614 83.2611 159.614ZM83.2611 99.365C69.4275 99.365 58.185 111.487 58.185 126.403C58.185 141.319 69.4275 153.441 83.2611 153.441C97.0947 153.441 108.337 141.319 108.337 126.403C108.337 111.487 97.0529 99.365 83.2611 99.365Z" fill="#1A1A5E"/>
<path d="M83.4701 194.989C81.8819 194.989 80.5864 193.592 80.5864 191.879C80.5864 190.167 81.8819 188.77 83.4701 188.77C116.236 188.77 142.9 160.47 142.9 125.637C142.9 90.803 116.236 62.5035 83.4701 62.5035C50.7041 62.5035 24.0399 90.803 24.0399 125.637C24.0399 127.349 22.7443 128.746 21.1561 128.746C19.568 128.746 18.2724 127.349 18.2724 125.637C18.2724 87.4233 47.5278 56.2848 83.4701 56.2848C119.412 56.2848 148.668 87.3783 148.668 125.637C148.668 163.895 119.412 194.989 83.4701 194.989Z" fill="#F1FDFF"/>
<path d="M645.591 681.804C639.782 681.804 633.931 680.993 628.163 679.326C591.97 668.826 570.53 627.954 580.394 588.208C580.812 586.541 582.4 585.55 583.904 586C585.451 586.451 586.37 588.163 585.952 589.786C576.925 626.241 596.526 663.689 629.668 673.287C645.717 677.929 662.518 675.405 676.936 666.257C691.397 657.065 701.762 642.284 706.15 624.574C715.177 588.118 695.576 550.671 662.434 541.072C660.888 540.622 659.968 538.909 660.386 537.242C660.804 535.575 662.392 534.583 663.939 535.034C700.132 545.534 721.572 586.406 711.708 626.151C706.944 645.393 695.618 661.526 679.862 671.575C669.246 678.379 657.502 681.804 645.591 681.804Z" fill="#1A1A5E"/>
<path d="M215.328 586.631C176.126 586.631 144.238 549.094 144.238 502.949C144.238 487.492 147.832 472.396 154.686 459.283C155.48 457.796 157.235 457.255 158.615 458.111C159.994 458.968 160.495 460.86 159.701 462.347C153.349 474.514 150.005 488.574 150.005 502.994C150.005 545.714 179.302 580.457 215.328 580.457C216.916 580.457 218.212 581.854 218.212 583.567C218.212 585.279 216.916 586.631 215.328 586.631ZM175.666 439.996C174.789 439.996 173.953 439.591 173.409 438.779C172.448 437.428 172.657 435.49 173.911 434.408C186.073 424.179 200.45 418.771 215.537 418.771H262.011C263.6 418.771 264.895 420.168 264.895 421.881C264.895 423.593 263.6 424.99 262.011 424.99H215.495C201.745 424.99 188.58 429.947 177.422 439.32C176.92 439.771 176.293 439.996 175.666 439.996Z" fill="#A5EBFD"/>
<path d="M147.33 259.564C131.7 259.564 118.953 245.82 118.953 228.966C118.953 212.112 131.7 198.368 147.33 198.368C148.918 198.368 150.214 199.765 150.214 201.478C150.214 203.19 148.918 204.587 147.33 204.587C134.876 204.587 124.72 215.537 124.72 228.966C124.72 242.395 134.876 253.345 147.33 253.345C159.785 253.345 169.941 242.395 169.941 228.966V201.478C169.941 199.765 171.236 198.368 172.824 198.368C174.412 198.368 175.708 199.765 175.708 201.478V228.966C175.708 245.82 163.003 259.564 147.33 259.564Z" fill="#1A1A5E"/>
<path d="M188.789 80.2583C168.603 80.2583 152.22 62.4584 152.22 40.5578C152.22 38.8454 153.516 37.4485 155.104 37.4485C156.692 37.4485 157.988 38.8454 157.988 40.5578C157.988 59.0336 171.821 74.0396 188.831 74.0396C205.841 74.0396 219.675 59.0336 219.675 40.5578C219.675 22.082 205.841 7.07602 188.831 7.07602H155.146C153.558 7.07602 152.262 5.67907 152.262 3.96667C152.262 2.25428 153.558 0.85733 155.146 0.85733H188.831C209.017 0.85733 225.4 18.6572 225.4 40.5578C225.4 62.4584 208.976 80.2583 188.789 80.2583Z" fill="#6CBFED"/>
<path d="M62.8659 485.735C61.2778 485.735 59.9822 484.338 59.9822 482.626V386.416C59.9822 370.779 48.0293 358.072 33.3598 358.072C18.6903 358.072 6.7374 370.779 6.7374 386.416C6.7374 402.053 18.6903 414.761 33.3598 414.761C34.9479 414.761 36.2435 416.158 36.2435 417.87C36.2435 419.583 34.9479 420.98 33.3598 420.98C15.514 420.98 0.96991 405.478 0.96991 386.416C0.96991 367.355 15.514 351.853 33.3598 351.853C51.2056 351.853 65.7497 367.355 65.7497 386.416V482.626C65.7497 484.338 64.4541 485.735 62.8659 485.735Z" fill="#1A1A5E"/>
<path d="M676.644 451.803C660.386 451.803 647.138 437.337 647.138 419.538C647.138 417.825 648.433 416.428 650.021 416.428C651.609 416.428 652.905 417.825 652.905 419.538C652.905 433.913 663.562 445.584 676.644 445.584C689.725 445.584 700.382 433.913 700.382 419.538C700.382 405.162 689.725 393.491 676.644 393.491H587.498C585.91 393.491 584.615 392.094 584.615 390.382C584.615 388.669 585.91 387.272 587.498 387.272H676.644C692.901 387.272 706.15 401.738 706.15 419.538C706.15 437.337 692.901 451.803 676.644 451.803Z" fill="#1A1A5E"/>
<path d="M430.063 133.793C412.802 133.793 398.801 118.877 398.801 100.492C398.801 82.1059 412.844 67.19 430.063 67.19C431.651 67.19 432.946 68.587 432.946 70.2994C432.946 72.0118 431.651 73.4087 430.063 73.4087C416.02 73.4087 404.569 85.5307 404.569 100.492C404.569 115.452 416.02 127.574 430.063 127.574C444.105 127.574 455.557 115.452 455.557 100.492V3.47098C455.557 1.75859 456.852 0.361633 458.44 0.361633C460.029 0.361633 461.324 1.75859 461.324 3.47098V100.492C461.324 118.877 447.323 133.793 430.063 133.793Z" fill="#6CBFED"/>
<path d="M432.946 681.804H392.365C390.777 681.804 389.481 680.407 389.481 678.695C389.481 676.982 390.777 675.585 392.365 675.585H432.946C445.443 675.585 455.598 664.545 455.598 650.981C455.598 637.417 445.443 626.377 432.946 626.377C420.45 626.377 410.294 637.417 410.294 650.981C410.294 652.693 408.999 654.09 407.411 654.09C405.822 654.09 404.527 652.693 404.527 650.981C404.527 633.992 417.274 620.158 432.946 620.158C448.619 620.158 461.366 633.992 461.366 650.981C461.366 667.97 448.577 681.804 432.946 681.804Z" fill="#1A1A5E"/>
<path d="M484.854 330.313C469.223 330.313 456.476 316.659 456.476 299.85V197.647C456.476 195.935 457.772 194.538 459.36 194.538C460.948 194.538 462.244 195.935 462.244 197.647V299.895C462.244 313.279 472.399 324.139 484.854 324.139C497.308 324.139 507.464 313.279 507.464 299.895C507.464 286.512 497.308 275.651 484.854 275.651C483.266 275.651 481.97 274.254 481.97 272.542C481.97 270.83 483.266 269.433 484.854 269.433C500.485 269.433 513.232 283.087 513.232 299.895C513.232 316.659 500.485 330.313 484.854 330.313Z" fill="#A5EBFD"/>
<path d="M29.3476 332.701C13.7169 332.701 0.96991 319.137 0.96991 302.509C0.96991 285.881 13.7169 272.317 29.3476 272.317C30.9358 272.317 32.2314 273.714 32.2314 275.426C32.2314 277.138 30.9358 278.535 29.3476 278.535C16.8932 278.535 6.7374 289.305 6.7374 302.509C6.7374 315.712 16.8932 326.482 29.3476 326.482C41.8021 326.482 51.9579 315.712 51.9579 302.509V191.879C51.9579 190.167 53.2534 188.77 54.8416 188.77C56.4297 188.77 57.7253 190.167 57.7253 191.879V302.509C57.7671 319.182 45.0201 332.701 29.3476 332.701Z" fill="#A5EBFD"/>
<path d="M379.952 244.242H262.137C235.765 244.242 214.325 220.765 214.325 191.879C214.325 162.994 235.765 139.516 262.137 139.516C288.508 139.516 309.948 162.994 309.948 191.879C309.948 193.592 308.653 194.989 307.065 194.989C305.477 194.989 304.181 193.592 304.181 191.879C304.181 166.419 285.29 145.735 262.095 145.735C238.9 145.735 220.009 166.419 220.009 191.879C220.009 217.34 238.9 238.024 262.095 238.024H379.911C381.499 238.024 382.794 239.421 382.794 241.133C382.836 242.845 381.541 244.242 379.952 244.242Z" fill="#F1FDFF"/>
<path d="M666.279 354.241C664.691 354.241 663.395 352.844 663.395 351.132C663.395 349.419 664.691 348.023 666.279 348.023C689.474 348.023 708.365 327.339 708.365 301.878C708.365 276.417 689.474 255.734 666.279 255.734H548.463C546.875 255.734 545.58 254.337 545.58 252.624C545.58 250.912 546.875 249.515 548.463 249.515H666.279C692.651 249.515 714.132 272.993 714.132 301.878C714.132 330.763 692.651 354.241 666.279 354.241Z" fill="#1A1A5E"/>
<path d="M389.481 451.803C376.525 451.803 365.993 440.492 365.993 426.612V416.293C365.993 414.581 367.289 413.184 368.877 413.184C370.465 413.184 371.761 414.581 371.761 416.293V426.612C371.761 437.067 379.702 445.584 389.481 445.584C399.261 445.584 407.202 437.067 407.202 426.612V341.173C407.202 330.718 399.261 322.202 389.481 322.202C379.702 322.202 371.761 330.718 371.761 341.173V383.893C371.761 385.605 370.465 387.002 368.877 387.002C367.289 387.002 365.993 385.605 365.993 383.893V341.173C365.993 327.294 376.525 315.983 389.481 315.983C402.437 315.983 412.969 327.294 412.969 341.173V426.612C413.011 440.492 402.437 451.803 389.481 451.803Z" fill="#6CBFED"/>
<path d="M519.25 718.846C506.294 718.846 495.762 707.535 495.762 693.656V683.336C495.762 681.624 497.058 680.227 498.646 680.227C500.234 680.227 501.529 681.624 501.529 683.336V693.656C501.529 704.11 509.47 712.627 519.25 712.627C529.029 712.627 536.97 704.11 536.97 693.656V608.216C536.97 597.762 529.029 589.245 519.25 589.245C509.47 589.245 501.529 597.762 501.529 608.216V650.936C501.529 652.648 500.234 654.045 498.646 654.045C497.058 654.045 495.762 652.648 495.762 650.936V608.216C495.762 594.337 506.294 583.026 519.25 583.026C532.206 583.026 542.738 594.337 542.738 608.216V693.656C542.738 707.535 532.206 718.846 519.25 718.846Z" fill="#6CBFED"/>
<path d="M118.994 278.04C132.953 278.04 144.279 290.207 144.279 305.168V316.298C144.279 318.146 142.9 319.633 141.187 319.633C139.473 319.633 138.094 318.146 138.094 316.298V305.168C138.094 293.902 129.526 284.754 118.994 284.754C108.463 284.754 99.8949 293.902 99.8949 305.168V397.141C99.8949 408.407 108.463 417.555 118.994 417.555C129.526 417.555 138.094 408.407 138.094 397.141V351.177C138.094 349.329 139.473 347.842 141.187 347.842C142.9 347.842 144.279 349.329 144.279 351.177V397.141C144.279 412.102 132.912 424.269 118.994 424.269C105.077 424.269 93.7095 412.102 93.7095 397.141V305.123C93.6677 290.207 105.035 278.04 118.994 278.04Z" fill="#6CBFED"/>
<path d="M636.94 101.077C636.94 116.128 625.656 128.341 611.78 128.341H601.457C599.744 128.341 598.365 126.853 598.365 125.006C598.365 123.158 599.744 121.671 601.457 121.671H611.78C622.229 121.671 630.713 112.433 630.713 101.077C630.713 89.7215 622.229 80.4836 611.78 80.4836H526.48C516.032 80.4836 507.548 89.7215 507.548 101.077C507.548 112.433 516.032 121.671 526.48 121.671H569.109C570.823 121.671 572.202 123.158 572.202 125.006C572.202 126.853 570.823 128.341 569.109 128.341H526.48C512.605 128.341 501.32 116.083 501.32 101.077C501.32 86.0714 512.605 73.8143 526.48 73.8143H611.78C625.656 73.7692 636.94 86.0264 636.94 101.077Z" fill="#A5EBFD"/>
<path d="M371.301 200.757C350.028 200.757 332.726 182.146 332.726 159.254V42.3603C332.726 19.4683 350.028 0.85733 371.301 0.85733C392.574 0.85733 409.876 19.4683 409.876 42.3603V43.4869C409.876 45.1993 408.581 46.5963 406.993 46.5963C405.405 46.5963 404.109 45.1993 404.109 43.4869V42.3603C404.109 22.8931 389.398 7.07602 371.301 7.07602C353.205 7.07602 338.493 22.8931 338.493 42.3603V159.254C338.493 178.721 353.205 194.538 371.301 194.538C389.398 194.538 404.109 178.721 404.109 159.254V155.514C404.109 153.801 405.405 152.404 406.993 152.404C408.581 152.404 409.876 153.801 409.876 155.514V159.254C409.876 182.146 392.574 200.757 371.301 200.757Z" fill="#F1FDFF"/>
<path d="M94.796 521.109H31.3537C14.6363 521.109 1.01166 506.419 1.01166 488.349C1.01166 470.278 14.6363 455.588 31.3537 455.588H33.4851C35.0733 455.588 36.3689 456.985 36.3689 458.697C36.3689 460.41 35.0733 461.807 33.4851 461.807H31.3537C17.8126 461.807 6.77915 473.703 6.77915 488.349C6.77915 502.994 17.8126 514.891 31.3537 514.891H94.8378C108.379 514.891 119.412 502.994 119.412 488.349C119.412 473.703 108.379 461.807 94.8378 461.807H92.7064C91.1182 461.807 89.8226 460.41 89.8226 458.697C89.8226 456.985 91.1182 455.588 92.7064 455.588H94.8378C111.555 455.588 125.18 470.278 125.18 488.349C125.18 506.419 111.555 521.109 94.796 521.109Z" fill="#F1FDFF"/>
<path d="M390.819 492.9C358.303 492.9 331.848 464.601 331.848 429.857V319.092C331.848 317.38 333.144 315.983 334.732 315.983C336.32 315.983 337.616 317.38 337.616 319.092V429.857C337.616 461.221 361.48 486.681 390.819 486.681C420.158 486.681 444.022 461.176 444.022 429.857V403.675C444.022 401.963 445.317 400.566 446.905 400.566C448.494 400.566 449.789 401.963 449.789 403.675V429.857C449.789 464.646 423.334 492.9 390.819 492.9Z" fill="#1A1A5E"/>
<path d="M314.211 647.376H286.502C284.914 647.376 283.619 645.979 283.619 644.267C283.619 642.554 284.914 641.157 286.502 641.157H314.211C347.646 641.157 374.854 611.641 374.854 575.41C374.854 539.18 347.646 509.663 314.211 509.663H222.057C220.469 509.663 219.173 508.267 219.173 506.554C219.173 504.842 220.469 503.445 222.057 503.445H314.211C350.822 503.445 380.621 535.71 380.621 575.41C380.621 615.111 350.822 647.376 314.211 647.376Z" fill="#1A1A5E"/>
<path d="M285.708 341.804C284.12 341.804 282.825 340.407 282.825 338.694C282.825 336.982 284.12 335.585 285.708 335.585C297.452 335.585 306.981 325.266 306.981 312.558V309.989C306.981 295.885 296.366 284.394 283.326 284.394H239.736C226.696 284.394 216.081 295.885 216.081 309.989C216.081 324.094 226.696 335.585 239.736 335.585H261.552C263.14 335.585 264.435 336.982 264.435 338.694C264.435 340.407 263.14 341.804 261.552 341.804H239.736C223.52 341.804 210.313 327.519 210.313 309.989C210.313 292.46 223.52 278.175 239.736 278.175H283.368C299.584 278.175 312.79 292.46 312.79 309.989V312.558C312.749 328.69 300.629 341.804 285.708 341.804Z" fill="#6CBFED"/>
<path d="M509.763 232.301H484.854C483.266 232.301 481.97 230.904 481.97 229.191C481.97 227.479 483.266 226.082 484.854 226.082H509.763C524.892 226.082 537.179 213.645 537.179 198.368C537.179 183.092 524.892 170.655 509.763 170.655H459.945C444.816 170.655 432.529 183.092 432.529 198.368C432.529 200.081 431.233 201.478 429.645 201.478C428.057 201.478 426.761 200.081 426.761 198.368C426.761 179.667 441.639 164.436 459.945 164.436H509.763C528.068 164.436 542.947 179.667 542.947 198.368C542.947 217.069 528.068 232.301 509.763 232.301Z" fill="#1A1A5E"/>
<path d="M172.824 177.775C171.236 177.775 169.941 176.378 169.941 174.665C169.941 132.081 201.954 97.4273 241.282 97.4273H301.005C302.593 97.4273 303.888 98.8243 303.888 100.537C303.888 102.249 302.593 103.646 301.005 103.646H241.282C205.131 103.646 175.708 135.506 175.708 174.665C175.708 176.378 174.412 177.775 172.824 177.775Z" fill="#1A1A5E"/>
<path d="M644.505 638.273C628.874 638.273 616.127 624.619 616.127 607.856V430.037C616.127 428.325 617.422 426.928 619.011 426.928C620.599 426.928 621.894 428.325 621.894 430.037V607.901C621.894 621.239 632.05 632.099 644.505 632.099C656.959 632.099 667.115 621.239 667.115 607.901C667.115 594.562 656.959 583.702 644.505 583.702C642.916 583.702 641.621 582.305 641.621 580.593C641.621 578.88 642.916 577.483 644.505 577.483C660.135 577.483 672.882 591.137 672.882 607.901C672.882 624.664 660.135 638.273 644.505 638.273Z" fill="#6CBFED"/>
<path d="M453.592 601.457C452.004 601.457 450.709 600.06 450.709 598.348C450.709 568.696 472.817 544.542 499.983 544.542H581.731C583.319 544.542 584.615 545.939 584.615 547.652C584.615 549.364 583.319 550.761 581.731 550.761H499.983C475.994 550.761 456.476 572.121 456.476 598.348C456.434 600.06 455.181 601.457 453.592 601.457Z" fill="#1A1A5E"/>
<path d="M376.567 284.439H332.935C331.347 284.439 330.051 283.042 330.051 281.329C330.051 279.617 331.347 278.22 332.935 278.22H376.567C404.234 278.22 426.719 253.886 426.719 223.964C426.719 222.252 428.015 220.855 429.603 220.855C431.191 220.855 432.487 222.252 432.487 223.964C432.487 257.311 407.411 284.439 376.567 284.439Z" fill="#6CBFED"/>
<path d="M543.908 506.779H509.888C508.3 506.779 507.004 505.382 507.004 503.67C507.004 501.958 508.3 500.561 509.888 500.561H543.908C566.351 500.561 584.615 480.868 584.615 456.669V430.984C584.615 429.271 585.91 427.874 587.499 427.874C589.087 427.874 590.382 429.271 590.382 430.984V456.669C590.382 484.293 569.527 506.779 543.908 506.779Z" fill="#6CBFED"/>
<path d="M583.946 359.018C582.358 359.018 581.062 357.621 581.062 355.908C581.062 324.905 604.258 299.715 632.719 299.715H669.957C671.545 299.715 672.84 301.112 672.84 302.824C672.84 304.537 671.545 305.934 669.957 305.934H632.719C607.392 305.934 586.83 328.33 586.83 355.908C586.83 357.621 585.534 359.018 583.946 359.018Z" fill="#A5EBFD"/>
<path d="M98.3485 681.804C96.7603 681.804 95.4647 680.407 95.4647 678.695V635.119C95.4647 622.321 100.02 609.838 108.337 599.879C116.445 590.191 127.813 583.296 140.309 580.457C141.855 580.097 143.402 581.178 143.736 582.846C144.07 584.513 143.067 586.18 141.521 586.541C130.195 589.064 119.956 595.283 112.642 604.025C105.203 612.948 101.232 623.673 101.232 635.074V678.65C101.232 680.407 99.9366 681.804 98.3485 681.804Z" fill="#1A1A5E"/>
<path d="M21.3651 250.461C19.7769 250.461 18.4813 249.064 18.4813 247.352V159.389C18.4813 157.676 19.7769 156.279 21.3651 156.279C22.9532 156.279 24.2488 157.676 24.2488 159.389V247.397C24.2488 249.064 22.995 250.461 21.3651 250.461Z" fill="#1A1A5E"/>
<path d="M484.394 437.427C482.806 437.427 481.51 436.031 481.51 434.318V361.632C481.51 359.919 482.806 358.522 484.394 358.522C485.982 358.522 487.278 359.919 487.278 361.632V434.318C487.278 436.076 485.982 437.427 484.394 437.427Z" fill="#1A1A5E"/>
<path d="M416.104 591.903C414.516 591.903 413.22 590.507 413.22 588.794V559.143C413.22 557.43 414.516 556.033 416.104 556.033C417.692 556.033 418.987 557.43 418.987 559.143V588.794C418.987 590.507 417.692 591.903 416.104 591.903Z" fill="#1A1A5E"/>
<path d="M436.624 528.77H424.755C423.167 528.77 421.871 527.373 421.871 525.661C421.871 523.948 423.167 522.551 424.755 522.551H436.624C459.527 522.551 478.167 502.498 478.167 477.804C478.167 476.091 479.462 474.695 481.051 474.695C482.639 474.695 483.934 476.091 483.934 477.804C483.934 505.923 462.703 528.77 436.624 528.77ZM526.187 465.231H497.726C496.138 465.231 494.842 463.834 494.842 462.122C494.842 460.41 496.138 459.013 497.726 459.013H526.187C536.887 459.013 545.58 449.73 545.58 438.284V433.822C545.58 424.855 538.725 417.555 530.325 417.555C518.748 417.555 509.303 407.461 509.303 395.068V391.058C509.303 378.665 518.706 368.571 530.325 368.571C538.725 368.571 545.58 361.271 545.58 352.303V284.258C545.58 282.546 546.875 281.149 548.463 281.149C550.051 281.149 551.347 282.546 551.347 284.258V352.303C551.347 364.696 541.944 374.79 530.325 374.79C521.925 374.79 515.07 382.09 515.07 391.058V395.068C515.07 404.036 521.925 411.336 530.325 411.336C541.902 411.336 551.347 421.43 551.347 433.822V438.284C551.347 453.154 540.063 465.231 526.187 465.231Z" fill="#F1FDFF"/>
<path d="M635.435 227.524C621.142 227.524 609.524 214.997 609.524 199.63V191.609C609.524 179.757 600.58 170.159 589.546 170.159C578.513 170.159 569.569 179.802 569.569 191.609V201.478C569.569 203.19 568.273 204.587 566.685 204.587C565.097 204.587 563.802 203.19 563.802 201.478V191.609C563.802 176.333 575.337 163.94 589.546 163.94C603.756 163.94 615.291 176.378 615.291 191.609V199.63C615.291 211.572 624.318 221.305 635.435 221.305C646.553 221.305 655.58 211.572 655.58 199.63V189.942C655.58 188.229 656.875 186.832 658.464 186.832C660.052 186.832 661.347 188.229 661.347 189.942V199.63C661.347 214.997 649.729 227.524 635.435 227.524Z" fill="#6CBFED"/>
<path d="M1411.58 512.052C1395.95 512.052 1383.2 498.217 1383.2 481.229C1383.2 479.516 1384.5 478.119 1386.09 478.119C1387.67 478.119 1388.97 479.516 1388.97 481.229C1388.97 494.793 1399.13 505.833 1411.58 505.833C1424.03 505.833 1434.19 494.793 1434.19 481.229C1434.19 479.516 1435.49 478.119 1437.07 478.119C1438.66 478.119 1439.96 479.516 1439.96 481.229C1439.96 498.217 1427.25 512.052 1411.58 512.052Z" fill="#1A1A5E"/>
<path d="M1437.12 80.709C1417.93 80.709 1402.3 63.7653 1402.3 42.9462C1402.3 22.1271 1417.93 5.18344 1437.12 5.18344C1438.7 5.18344 1440 6.58039 1440 8.29279C1440 10.0052 1438.7 11.4021 1437.12 11.4021C1421.11 11.4021 1408.07 25.5519 1408.07 42.9462C1408.07 60.3405 1421.11 74.4903 1437.12 74.4903C1438.7 74.4903 1440 75.8872 1440 77.5996C1439.96 79.312 1438.7 80.709 1437.12 80.709Z" fill="#6CBFED"/>
<path d="M1003.34 68.2716C987.085 68.2716 973.836 53.9866 973.836 36.4121C973.836 34.6997 975.132 33.3027 976.72 33.3027C978.308 33.3027 979.604 34.6997 979.604 36.4121C979.604 50.5618 990.261 62.0529 1003.34 62.0529C1016.42 62.0529 1027.08 50.5618 1027.08 36.4121V3.96671C1027.08 2.25431 1028.38 0.857361 1029.97 0.857361C1031.55 0.857361 1032.85 2.25431 1032.85 3.96671V36.4571C1032.85 53.9866 1019.6 68.2716 1003.34 68.2716Z" fill="#1A1A5E"/>
<path d="M788.357 681.804C753.711 681.804 725.5 651.567 725.5 614.39C725.5 577.213 753.711 546.976 788.357 546.976H843.232C844.82 546.976 846.116 548.373 846.116 550.085C846.116 551.797 844.82 553.194 843.232 553.194H788.357C756.887 553.194 731.268 580.638 731.268 614.39C731.268 648.142 756.887 675.586 788.357 675.586C789.946 675.586 791.241 676.983 791.241 678.695C791.241 680.407 789.946 681.804 788.357 681.804Z" fill="#F1FDFF"/>
<path d="M784.722 637.823C772.142 637.823 761.902 627.098 761.902 613.894C761.902 600.691 772.142 589.966 784.722 589.966H806.036C807.624 589.966 808.92 591.363 808.92 593.075C808.92 594.787 807.624 596.184 806.036 596.184H784.722C775.318 596.184 767.67 604.115 767.67 613.894C767.67 623.628 775.318 631.604 784.722 631.604C786.31 631.604 787.605 633.001 787.605 634.713C787.605 636.426 786.31 637.823 784.722 637.823Z" fill="#1A1A5E"/>
<path d="M1437.12 227.524C1435.53 227.524 1434.23 226.127 1434.23 224.415V143.932C1434.23 129.918 1423.58 118.517 1410.49 118.517C1397.41 118.517 1386.76 129.918 1386.76 143.932V156.37C1386.76 158.082 1385.46 159.479 1383.87 159.479C1382.28 159.479 1380.99 158.082 1380.99 156.37V143.932C1380.99 126.493 1394.24 112.298 1410.49 112.298C1426.75 112.298 1440 126.493 1440 143.932V224.415C1439.96 226.127 1438.7 227.524 1437.12 227.524Z" fill="#A5EBFD"/>
<path d="M890.208 681.804H885.444C869.896 681.804 857.233 668.15 857.233 651.342C857.233 634.533 869.896 620.879 885.444 620.879H942.032C961.09 620.879 976.595 604.161 976.595 583.567C976.595 581.854 977.891 580.457 979.479 580.457C981.067 580.457 982.362 581.854 982.362 583.567C982.362 607.585 964.266 627.098 942.032 627.098H885.444C873.073 627.098 863.001 637.958 863.001 651.342C863.001 664.725 873.073 675.585 885.444 675.585H890.208C891.796 675.585 893.092 676.982 893.092 678.695C893.092 680.407 891.796 681.804 890.208 681.804ZM979.228 546.21H946.378C924.771 546.21 907.176 527.328 907.176 504.166C907.176 480.958 924.771 462.122 946.378 462.122H1025.95C1027.54 462.122 1028.84 463.519 1028.84 465.231C1028.84 466.944 1027.54 468.341 1025.95 468.341H946.378C927.947 468.341 912.944 484.428 912.944 504.166C912.944 523.949 927.947 539.991 946.378 539.991H979.228C980.816 539.991 982.112 541.388 982.112 543.1C982.112 544.813 980.816 546.21 979.228 546.21ZM1025.99 427.108C1024.41 427.108 1023.11 425.711 1023.11 423.999C1023.11 403.225 1007.44 386.326 988.213 386.326H963.179C926.944 386.326 897.48 354.512 897.48 315.397V284.664C897.48 282.952 898.776 281.555 900.364 281.555C901.952 281.555 903.247 282.952 903.247 284.664V315.397C903.247 351.087 930.121 380.107 963.179 380.107H988.213C1010.66 380.107 1028.88 399.8 1028.88 423.999C1028.88 425.711 1027.58 427.108 1025.99 427.108Z" fill="#A5EBFD"/>
<path d="M988.297 213.645C976.929 213.645 967.693 203.686 967.693 191.429C967.693 179.172 976.929 169.213 988.297 169.213C999.665 169.213 1008.9 179.172 1008.9 191.429C1008.9 203.686 999.665 213.645 988.297 213.645ZM988.297 175.386C980.106 175.386 973.46 182.551 973.46 191.384C973.46 200.216 980.106 207.381 988.297 207.381C996.489 207.381 1003.13 200.216 1003.13 191.384C1003.13 182.551 996.489 175.386 988.297 175.386Z" fill="#1A1A5E"/>
<path d="M1037.07 605.783C1021.31 605.783 1008.48 592.039 1008.48 575.185C1008.48 558.331 1021.31 544.587 1037.07 544.587C1052.83 544.587 1065.66 558.331 1065.66 575.185C1065.66 592.039 1052.83 605.783 1037.07 605.783ZM1037.07 550.761C1024.49 550.761 1014.25 561.711 1014.25 575.14C1014.25 588.569 1024.49 599.519 1037.07 599.519C1049.65 599.519 1059.89 588.569 1059.89 575.14C1059.89 561.711 1049.65 550.761 1037.07 550.761Z" fill="#6CBFED"/>
<path d="M809.087 159.614C792.077 159.614 778.243 144.698 778.243 126.358C778.243 108.017 792.077 93.1013 809.087 93.1013C826.097 93.1013 839.931 108.017 839.931 126.358C839.931 144.698 826.097 159.614 809.087 159.614ZM809.087 99.365C795.253 99.365 784.011 111.487 784.011 126.403C784.011 141.319 795.253 153.441 809.087 153.441C822.921 153.441 834.163 141.319 834.163 126.403C834.163 111.487 822.921 99.365 809.087 99.365Z" fill="#1A1A5E"/>
<path d="M809.338 194.989C807.75 194.989 806.454 193.592 806.454 191.879C806.454 190.167 807.75 188.77 809.338 188.77C842.104 188.77 868.768 160.47 868.768 125.637C868.768 90.8031 842.104 62.5035 809.338 62.5035C776.572 62.5035 749.908 90.8481 749.908 125.682C749.908 127.394 748.612 128.791 747.024 128.791C745.436 128.791 744.14 127.394 744.14 125.682C744.14 87.4684 773.395 56.3299 809.338 56.3299C845.28 56.3299 874.535 87.4234 874.535 125.682C874.535 163.94 845.28 194.989 809.338 194.989Z" fill="#F1FDFF"/>
<path d="M1371.46 681.804C1365.65 681.804 1359.8 680.993 1354.03 679.326C1317.84 668.826 1296.4 627.954 1306.26 588.208C1306.68 586.541 1308.27 585.55 1309.77 586C1311.32 586.451 1312.24 588.163 1311.82 589.786C1302.79 626.241 1322.39 663.689 1355.54 673.287C1371.58 677.929 1388.39 675.405 1402.8 666.257C1417.26 657.065 1427.63 642.284 1432.02 624.574C1441.04 588.118 1421.44 550.671 1388.3 541.072C1386.76 540.622 1385.84 538.909 1386.25 537.242C1386.67 535.575 1388.26 534.583 1389.81 535.034C1426 545.534 1447.44 586.406 1437.58 626.151C1432.81 645.393 1421.49 661.526 1405.73 671.575C1395.11 678.379 1383.33 681.804 1371.46 681.804Z" fill="#1A1A5E"/>
<path d="M941.196 586.631C901.994 586.631 870.105 549.094 870.105 502.949C870.105 487.492 873.7 472.396 880.554 459.283C881.348 457.796 883.103 457.255 884.482 458.111C885.861 458.968 886.363 460.86 885.569 462.347C879.216 474.514 875.873 488.574 875.873 502.994C875.873 545.714 905.17 580.457 941.196 580.457C942.784 580.457 944.08 581.854 944.08 583.567C944.08 585.279 942.784 586.631 941.196 586.631ZM901.534 439.996C900.656 439.996 899.82 439.591 899.277 438.779C898.316 437.428 898.525 435.49 899.779 434.408C911.941 424.179 926.318 418.771 941.405 418.771H987.879C989.467 418.771 990.763 420.168 990.763 421.881C990.763 423.593 989.467 424.99 987.879 424.99H941.405C927.655 424.99 914.49 429.947 903.331 439.32C902.746 439.771 902.119 439.996 901.534 439.996Z" fill="#A5EBFD"/>
<path d="M873.198 259.564C857.567 259.564 844.82 245.82 844.82 228.966C844.82 212.113 857.567 198.368 873.198 198.368C874.786 198.368 876.082 199.765 876.082 201.478C876.082 203.19 874.786 204.587 873.198 204.587C860.744 204.587 850.588 215.537 850.588 228.966C850.588 242.395 860.744 253.345 873.198 253.345C885.653 253.345 895.808 242.395 895.808 228.966V201.478C895.808 199.765 897.104 198.368 898.692 198.368C900.28 198.368 901.576 199.765 901.576 201.478V228.966C901.576 245.82 888.829 259.564 873.198 259.564Z" fill="#1A1A5E"/>
<path d="M914.657 80.2583C894.471 80.2583 878.088 62.4585 878.088 40.5578C878.088 38.8455 879.384 37.4485 880.972 37.4485C882.56 37.4485 883.855 38.8455 883.855 40.5578C883.855 59.0337 897.689 74.0396 914.699 74.0396C931.709 74.0396 945.543 59.0337 945.543 40.5578C945.543 22.082 931.709 7.07605 914.699 7.07605H881.013C879.425 7.07605 878.13 5.6791 878.13 3.96671C878.13 2.25431 879.425 0.857361 881.013 0.857361H914.699C934.885 0.857361 951.268 18.6572 951.268 40.5578C951.268 62.4585 934.843 80.2583 914.657 80.2583Z" fill="#6CBFED"/>
<path d="M788.692 485.735C787.104 485.735 785.808 484.338 785.808 482.626V386.416C785.808 370.779 773.855 358.072 759.186 358.072C744.516 358.072 732.563 370.779 732.563 386.416C732.563 402.053 744.516 414.761 759.186 414.761C760.774 414.761 762.069 416.158 762.069 417.87C762.069 419.583 760.774 420.98 759.186 420.98C741.34 420.98 726.796 405.478 726.796 386.416C726.796 367.355 741.34 351.853 759.186 351.853C777.031 351.853 791.576 367.355 791.576 386.416V482.626C791.576 484.338 790.28 485.735 788.692 485.735Z" fill="#1A1A5E"/>
<path d="M1402.51 451.803C1386.25 451.803 1373.01 437.337 1373.01 419.538C1373.01 417.825 1374.3 416.428 1375.89 416.428C1377.48 416.428 1378.77 417.825 1378.77 419.538C1378.77 433.913 1389.43 445.584 1402.51 445.584C1415.59 445.584 1426.25 433.913 1426.25 419.538C1426.25 405.162 1415.59 393.491 1402.51 393.491H1313.37C1311.78 393.491 1310.48 392.094 1310.48 390.382C1310.48 388.669 1311.78 387.272 1313.37 387.272H1402.51C1418.77 387.272 1432.02 401.738 1432.02 419.538C1432.02 437.337 1418.77 451.803 1402.51 451.803Z" fill="#1A1A5E"/>
<path d="M1155.93 133.793C1138.67 133.793 1124.67 118.877 1124.67 100.492C1124.67 82.1059 1138.71 67.19 1155.93 67.19C1157.52 67.19 1158.81 68.587 1158.81 70.2994C1158.81 72.0118 1157.52 73.4087 1155.93 73.4087C1141.89 73.4087 1130.44 85.5307 1130.44 100.492C1130.44 115.452 1141.89 127.574 1155.93 127.574C1169.97 127.574 1181.42 115.452 1181.42 100.492V3.47098C1181.42 1.75859 1182.72 0.361633 1184.31 0.361633C1185.9 0.361633 1187.19 1.75859 1187.19 3.47098V100.492C1187.19 118.877 1173.15 133.793 1155.93 133.793Z" fill="#6CBFED"/>
<path d="M1158.77 681.804H1118.19C1116.6 681.804 1115.31 680.407 1115.31 678.695C1115.31 676.982 1116.6 675.585 1118.19 675.585H1158.77C1171.27 675.585 1181.42 664.545 1181.42 650.981C1181.42 637.417 1171.27 626.377 1158.77 626.377C1146.28 626.377 1136.12 637.417 1136.12 650.981C1136.12 652.693 1134.82 654.09 1133.24 654.09C1131.65 654.09 1130.35 652.693 1130.35 650.981C1130.35 633.992 1143.1 620.158 1158.77 620.158C1174.44 620.158 1187.19 633.992 1187.19 650.981C1187.19 667.97 1174.44 681.804 1158.77 681.804Z" fill="#1A1A5E"/>
<path d="M1210.68 330.313C1195.05 330.313 1182.3 316.659 1182.3 299.85V197.647C1182.3 195.935 1183.6 194.538 1185.19 194.538C1186.77 194.538 1188.07 195.935 1188.07 197.647V299.895C1188.07 313.279 1198.23 324.139 1210.68 324.139C1223.13 324.139 1233.29 313.279 1233.29 299.895C1233.29 286.512 1223.13 275.651 1210.68 275.651C1209.09 275.651 1207.8 274.254 1207.8 272.542C1207.8 270.83 1209.09 269.433 1210.68 269.433C1226.31 269.433 1239.06 283.087 1239.06 299.895C1239.06 316.659 1226.35 330.313 1210.68 330.313Z" fill="#A5EBFD"/>
<path d="M755.215 332.701C739.585 332.701 726.838 319.137 726.838 302.509C726.838 285.881 739.585 272.317 755.215 272.317C756.803 272.317 758.099 273.714 758.099 275.426C758.099 277.138 756.803 278.535 755.215 278.535C742.761 278.535 732.605 289.305 732.605 302.509C732.605 315.712 742.761 326.482 755.215 326.482C767.67 326.482 777.826 315.712 777.826 302.509V191.879C777.826 190.167 779.121 188.77 780.709 188.77C782.297 188.77 783.593 190.167 783.593 191.879V302.509C783.593 319.182 770.888 332.701 755.215 332.701Z" fill="#A5EBFD"/>
<path d="M1105.82 244.242H988.005C961.633 244.242 940.193 220.765 940.193 191.879C940.193 162.994 961.633 139.516 988.005 139.516C1014.38 139.516 1035.82 162.994 1035.82 191.879C1035.82 193.592 1034.52 194.989 1032.93 194.989C1031.34 194.989 1030.05 193.592 1030.05 191.879C1030.05 166.419 1011.16 145.735 987.963 145.735C964.767 145.735 945.877 166.419 945.877 191.879C945.877 217.34 964.767 238.024 987.963 238.024H1105.78C1107.37 238.024 1108.66 239.421 1108.66 241.133C1108.7 242.845 1107.41 244.242 1105.82 244.242Z" fill="#F1FDFF"/>
<path d="M1392.15 354.241C1390.56 354.241 1389.26 352.844 1389.26 351.132C1389.26 349.419 1390.56 348.023 1392.15 348.023C1415.34 348.023 1434.23 327.339 1434.23 301.878C1434.23 276.417 1415.34 255.734 1392.15 255.734H1274.33C1272.74 255.734 1271.45 254.337 1271.45 252.624C1271.45 250.912 1272.74 249.515 1274.33 249.515H1392.15C1418.52 249.515 1440 272.993 1440 301.878C1440 330.763 1418.52 354.241 1392.15 354.241Z" fill="#1A1A5E"/>
<path d="M1115.35 451.803C1102.39 451.803 1091.86 440.492 1091.86 426.612V416.293C1091.86 414.581 1093.16 413.184 1094.74 413.184C1096.33 413.184 1097.63 414.581 1097.63 416.293V426.612C1097.63 437.067 1105.57 445.584 1115.35 445.584C1125.13 445.584 1133.07 437.067 1133.07 426.612V341.173C1133.07 330.718 1125.13 322.202 1115.35 322.202C1105.57 322.202 1097.63 330.718 1097.63 341.173V383.893C1097.63 385.605 1096.33 387.002 1094.74 387.002C1093.16 387.002 1091.86 385.605 1091.86 383.893V341.173C1091.86 327.294 1102.39 315.983 1115.35 315.983C1128.3 315.983 1138.84 327.294 1138.84 341.173V426.612C1138.84 440.492 1128.3 451.803 1115.35 451.803Z" fill="#6CBFED"/>
<path d="M1245.12 718.846C1232.16 718.846 1221.63 707.535 1221.63 693.656V683.336C1221.63 681.624 1222.93 680.227 1224.51 680.227C1226.1 680.227 1227.4 681.624 1227.4 683.336V693.656C1227.4 704.11 1235.34 712.627 1245.12 712.627C1254.9 712.627 1262.84 704.11 1262.84 693.656V608.216C1262.84 597.762 1254.9 589.245 1245.12 589.245C1235.34 589.245 1227.4 597.762 1227.4 608.216V650.936C1227.4 652.648 1226.1 654.045 1224.51 654.045C1222.93 654.045 1221.63 652.648 1221.63 650.936V608.216C1221.63 594.337 1232.16 583.026 1245.12 583.026C1258.07 583.026 1268.61 594.337 1268.61 608.216V693.656C1268.61 707.535 1258.07 718.846 1245.12 718.846Z" fill="#6CBFED"/>
<path d="M844.82 278.04C858.779 278.04 870.105 290.207 870.105 305.168V316.298C870.105 318.146 868.726 319.633 867.013 319.633C865.299 319.633 863.92 318.146 863.92 316.298V305.168C863.92 293.902 855.352 284.754 844.82 284.754C834.288 284.754 825.721 293.902 825.721 305.168V397.141C825.721 408.407 834.288 417.555 844.82 417.555C855.352 417.555 863.92 408.407 863.92 397.141V351.177C863.92 349.329 865.299 347.842 867.013 347.842C868.726 347.842 870.105 349.329 870.105 351.177V397.141C870.105 412.102 858.738 424.269 844.82 424.269C830.861 424.269 819.535 412.102 819.535 397.141V305.123C819.535 290.207 830.861 278.04 844.82 278.04Z" fill="#6CBFED"/>
<path d="M1362.81 101.077C1362.81 116.128 1351.52 128.341 1337.65 128.341H1327.33C1325.61 128.341 1324.23 126.853 1324.23 125.006C1324.23 123.158 1325.61 121.671 1327.33 121.671H1337.65C1348.1 121.671 1356.58 112.433 1356.58 101.077C1356.58 89.7215 1348.1 80.4836 1337.65 80.4836H1252.35C1241.9 80.4836 1233.42 89.7215 1233.42 101.077C1233.42 112.433 1241.9 121.671 1252.35 121.671H1294.98C1296.69 121.671 1298.07 123.158 1298.07 125.006C1298.07 126.853 1296.69 128.341 1294.98 128.341H1252.35C1238.47 128.341 1227.19 116.083 1227.19 101.077C1227.19 86.0714 1238.47 73.8143 1252.35 73.8143H1337.65C1351.52 73.7692 1362.81 86.0264 1362.81 101.077Z" fill="#A5EBFD"/>
<path d="M1097.17 200.757C1075.9 200.757 1058.59 182.146 1058.59 159.254V42.3604C1058.59 19.4684 1075.9 0.857361 1097.17 0.857361C1118.44 0.857361 1135.74 19.4684 1135.74 42.3604V43.4869C1135.74 45.1993 1134.45 46.5963 1132.86 46.5963C1131.27 46.5963 1129.98 45.1993 1129.98 43.4869V42.3604C1129.98 22.8932 1115.27 7.07605 1097.17 7.07605C1079.07 7.07605 1064.36 22.8932 1064.36 42.3604V159.254C1064.36 178.721 1079.07 194.538 1097.17 194.538C1115.27 194.538 1129.98 178.721 1129.98 159.254V155.514C1129.98 153.801 1131.27 152.404 1132.86 152.404C1134.45 152.404 1135.74 153.801 1135.74 155.514V159.254C1135.74 182.146 1118.44 200.757 1097.17 200.757Z" fill="#F1FDFF"/>
<path d="M820.664 521.109H757.18C740.462 521.109 726.838 506.419 726.838 488.349C726.838 470.278 740.462 455.588 757.18 455.588H759.311C760.899 455.588 762.195 456.985 762.195 458.697C762.195 460.41 760.899 461.807 759.311 461.807H757.18C743.639 461.807 732.605 473.703 732.605 488.349C732.605 502.994 743.639 514.891 757.18 514.891H820.664C834.205 514.891 845.238 502.994 845.238 488.349C845.238 473.703 834.205 461.807 820.664 461.807H818.532C816.944 461.807 815.649 460.41 815.649 458.697C815.649 456.985 816.944 455.588 818.532 455.588H820.664C837.381 455.588 851.006 470.278 851.006 488.349C851.006 506.419 837.381 521.109 820.664 521.109Z" fill="#F1FDFF"/>
<path d="M1116.69 492.9C1084.17 492.9 1057.72 464.601 1057.72 429.857V319.092C1057.72 317.38 1059.01 315.983 1060.6 315.983C1062.19 315.983 1063.48 317.38 1063.48 319.092V429.857C1063.48 461.221 1087.35 486.681 1116.69 486.681C1146.03 486.681 1169.89 461.176 1169.89 429.857V403.675C1169.89 401.963 1171.19 400.566 1172.77 400.566C1174.36 400.566 1175.66 401.963 1175.66 403.675V429.857C1175.66 464.646 1149.2 492.9 1116.69 492.9Z" fill="#1A1A5E"/>
<path d="M1040.08 647.376H1012.37C1010.78 647.376 1009.49 645.979 1009.49 644.267C1009.49 642.554 1010.78 641.157 1012.37 641.157H1040.08C1073.51 641.157 1100.72 611.641 1100.72 575.41C1100.72 539.18 1073.51 509.663 1040.08 509.663H947.925C946.337 509.663 945.041 508.267 945.041 506.554C945.041 504.842 946.337 503.445 947.925 503.445H1040.08C1076.69 503.445 1106.49 535.71 1106.49 575.41C1106.49 615.111 1076.69 647.376 1040.08 647.376Z" fill="#1A1A5E"/>
<path d="M1011.58 341.804C1009.99 341.804 1008.69 340.407 1008.69 338.694C1008.69 336.982 1009.99 335.585 1011.58 335.585C1023.32 335.585 1032.85 325.266 1032.85 312.558V309.989C1032.85 295.885 1022.23 284.394 1009.19 284.394H965.562C952.522 284.394 941.907 295.885 941.907 309.989C941.907 324.094 952.522 335.585 965.562 335.585H987.378C988.966 335.585 990.262 336.982 990.262 338.694C990.262 340.407 988.966 341.804 987.378 341.804H965.562C949.346 341.804 936.139 327.519 936.139 309.989C936.139 292.46 949.346 278.175 965.562 278.175H1009.19C1025.41 278.175 1038.62 292.46 1038.62 309.989V312.558C1038.62 328.69 1026.5 341.804 1011.58 341.804Z" fill="#6CBFED"/>
<path d="M1235.59 232.301H1210.68C1209.09 232.301 1207.8 230.904 1207.8 229.191C1207.8 227.479 1209.09 226.082 1210.68 226.082H1235.59C1250.72 226.082 1263.01 213.645 1263.01 198.368C1263.01 183.092 1250.72 170.655 1235.59 170.655H1185.77C1170.64 170.655 1158.35 183.092 1158.35 198.368C1158.35 200.081 1157.06 201.478 1155.47 201.478C1153.88 201.478 1152.59 200.081 1152.59 198.368C1152.59 179.667 1167.47 164.436 1185.77 164.436H1235.59C1253.89 164.436 1268.77 179.667 1268.77 198.368C1268.77 217.069 1253.89 232.301 1235.59 232.301Z" fill="#1A1A5E"/>
<path d="M898.692 177.775C897.104 177.775 895.808 176.378 895.808 174.665C895.808 132.081 927.822 97.4273 967.15 97.4273H1026.87C1028.46 97.4273 1029.76 98.8243 1029.76 100.537C1029.76 102.249 1028.46 103.646 1026.87 103.646H967.15C930.998 103.646 901.576 135.506 901.576 174.665C901.576 176.378 900.28 177.775 898.692 177.775Z" fill="#1A1A5E"/>
<path d="M1370.33 638.273C1354.7 638.273 1341.95 624.619 1341.95 607.856V430.037C1341.95 428.325 1343.25 426.928 1344.84 426.928C1346.42 426.928 1347.72 428.325 1347.72 430.037V607.901C1347.72 621.239 1357.88 632.099 1370.33 632.099C1382.78 632.099 1392.94 621.239 1392.94 607.901C1392.94 594.562 1382.78 583.702 1370.33 583.702C1368.74 583.702 1367.45 582.305 1367.45 580.593C1367.45 578.88 1368.74 577.483 1370.33 577.483C1385.96 577.483 1398.71 591.137 1398.71 607.901C1398.75 624.664 1386 638.273 1370.33 638.273Z" fill="#6CBFED"/>
<path d="M1179.42 601.457C1177.83 601.457 1176.53 600.06 1176.53 598.348C1176.53 568.696 1198.64 544.542 1225.81 544.542H1307.56C1309.15 544.542 1310.44 545.939 1310.44 547.652C1310.44 549.364 1309.15 550.761 1307.56 550.761H1225.81C1201.82 550.761 1182.3 572.121 1182.3 598.348C1182.3 600.06 1181.01 601.457 1179.42 601.457Z" fill="#1A1A5E"/>
<path d="M1102.43 284.439H1058.8C1057.21 284.439 1055.92 283.042 1055.92 281.329C1055.92 279.617 1057.21 278.22 1058.8 278.22H1102.43C1130.1 278.22 1152.59 253.886 1152.59 223.964C1152.59 222.252 1153.88 220.855 1155.47 220.855C1157.06 220.855 1158.35 222.252 1158.35 223.964C1158.35 257.311 1133.28 284.439 1102.43 284.439Z" fill="#6CBFED"/>
<path d="M1269.78 506.779H1235.76C1234.17 506.779 1232.87 505.382 1232.87 503.67C1232.87 501.958 1234.17 500.561 1235.76 500.561H1269.78C1292.22 500.561 1310.48 480.868 1310.48 456.669V430.984C1310.48 429.271 1311.78 427.874 1313.37 427.874C1314.95 427.874 1316.25 429.271 1316.25 430.984V456.669C1316.25 484.293 1295.39 506.779 1269.78 506.779Z" fill="#6CBFED"/>
<path d="M1309.81 359.018C1308.23 359.018 1306.93 357.621 1306.93 355.909C1306.93 324.905 1330.13 299.715 1358.59 299.715H1395.82C1397.41 299.715 1398.71 301.112 1398.71 302.824C1398.71 304.537 1397.41 305.934 1395.82 305.934H1358.59C1333.26 305.934 1312.7 328.33 1312.7 355.909C1312.7 357.621 1311.4 359.018 1309.81 359.018Z" fill="#A5EBFD"/>
<path d="M824.174 681.804C822.586 681.804 821.291 680.407 821.291 678.695V635.119C821.291 622.321 825.846 609.838 834.163 599.88C842.271 590.191 853.639 583.296 866.135 580.457C867.681 580.097 869.228 581.178 869.562 582.846C869.897 584.513 868.893 586.18 867.347 586.541C856.021 589.064 845.782 595.283 838.468 604.025C831.029 612.948 827.058 623.673 827.058 635.074V678.65C827.058 680.407 825.763 681.804 824.174 681.804Z" fill="#1A1A5E"/>
<path d="M747.233 250.461C745.645 250.461 744.349 249.064 744.349 247.352V159.389C744.349 157.676 745.645 156.279 747.233 156.279C748.821 156.279 750.117 157.676 750.117 159.389V247.397C750.117 249.064 748.821 250.461 747.233 250.461Z" fill="#1A1A5E"/>
<path d="M1210.26 437.427C1208.67 437.427 1207.38 436.031 1207.38 434.318V361.632C1207.38 359.919 1208.67 358.522 1210.26 358.522C1211.85 358.522 1213.15 359.919 1213.15 361.632V434.318C1213.15 436.076 1211.85 437.427 1210.26 437.427Z" fill="#1A1A5E"/>
<path d="M1141.93 591.903C1140.34 591.903 1139.05 590.506 1139.05 588.794V559.143C1139.05 557.43 1140.34 556.033 1141.93 556.033C1143.52 556.033 1144.81 557.43 1144.81 559.143V588.794C1144.81 590.506 1143.56 591.903 1141.93 591.903Z" fill="#1A1A5E"/>
<path d="M1162.49 528.77H1150.62C1149.03 528.77 1147.74 527.373 1147.74 525.661C1147.74 523.948 1149.03 522.551 1150.62 522.551H1162.49C1185.39 522.551 1204.03 502.498 1204.03 477.804C1204.03 476.092 1205.33 474.695 1206.92 474.695C1208.51 474.695 1209.8 476.092 1209.8 477.804C1209.8 505.923 1188.57 528.77 1162.49 528.77ZM1252.06 465.231H1223.59C1222.01 465.231 1220.71 463.834 1220.71 462.122C1220.71 460.41 1222.01 459.013 1223.59 459.013H1252.06C1262.75 459.013 1271.45 449.73 1271.45 438.284V433.822C1271.45 424.855 1264.59 417.555 1256.19 417.555C1244.62 417.555 1235.17 407.461 1235.17 395.068V391.058C1235.17 378.665 1244.57 368.571 1256.19 368.571C1264.59 368.571 1271.45 361.271 1271.45 352.304V284.258C1271.45 282.546 1272.74 281.149 1274.33 281.149C1275.92 281.149 1277.21 282.546 1277.21 284.258V352.304C1277.21 364.696 1267.81 374.79 1256.19 374.79C1247.79 374.79 1240.94 382.09 1240.94 391.058V395.068C1240.94 404.036 1247.79 411.336 1256.19 411.336C1267.77 411.336 1277.21 421.43 1277.21 433.822V438.284C1277.21 453.154 1265.93 465.231 1252.06 465.231Z" fill="#F1FDFF"/>
<path d="M1361.3 227.524C1347.01 227.524 1335.39 214.997 1335.39 199.63V191.609C1335.39 179.757 1326.45 170.159 1315.41 170.159C1304.38 170.159 1295.44 179.802 1295.44 191.609V201.478C1295.44 203.19 1294.14 204.587 1292.55 204.587C1290.96 204.587 1289.67 203.19 1289.67 201.478V191.609C1289.67 176.333 1301.2 163.94 1315.41 163.94C1329.62 163.94 1341.16 176.378 1341.16 191.609V199.63C1341.16 211.572 1350.19 221.305 1361.3 221.305C1372.42 221.305 1381.45 211.572 1381.45 199.63V189.942C1381.45 188.229 1382.74 186.832 1384.33 186.832C1385.92 186.832 1387.21 188.229 1387.21 189.942V199.63C1387.21 214.997 1375.6 227.524 1361.3 227.524Z" fill="#6CBFED"/>
</g>
</svg>
