<svg width="748" height="478" viewBox="0 0 748 478" fill="none" xmlns="http://www.w3.org/2000/svg">
<path d="M840.58 118.472C832.03 88.4326 787.898 81.6373 688.256 94.9813C679.922 96.0999 671.347 97.3242 662.525 98.7159C670.174 111.888 676.731 125.666 682.131 139.911C742.297 131.16 773.44 131.517 788.84 133.265C776.67 142.839 750.424 159.596 694.803 183.937C692.65 184.862 690.45 185.816 688.203 186.8C677.995 191.204 667.341 195.624 656.242 200.06C653.24 181.694 648.071 163.75 640.842 146.605C634.897 132.456 627.604 118.914 619.062 106.167C576.263 42.3098 503.544 0.238647 421.189 0.238647C292.604 0.238647 187.514 102.851 183.149 230.677C183.039 233.433 182.986 236.217 182.986 239C182.983 251.564 183.966 264.108 185.926 276.518C188.819 294.897 193.879 312.869 201 330.057C189.24 332.132 177.869 334.006 166.887 335.676C164.462 336.059 162.069 336.385 159.724 336.742C99.646 345.475 68.5248 345.136 53.16 343.374C65.3304 333.769 91.5764 317.043 147.28 292.671C144.357 277.735 142.675 262.582 142.251 247.368C134.058 250.835 126.138 254.291 118.491 257.735C26.7908 299.004 -7.12001 328.119 1.41599 358.163C7.18879 378.492 29.2944 388.176 73.862 388.176C95.1536 388.176 121.532 385.974 153.713 381.658C161.91 380.566 170.376 379.337 179.062 377.972C192.944 375.845 207.455 373.361 222.459 370.551C265.139 435.113 338.276 477.762 421.176 477.762C550.276 477.762 655.722 374.317 659.286 245.769C673.498 240.229 687.084 234.697 700.044 229.175C708.131 225.74 715.954 222.321 723.513 218.918C806.167 181.696 841.873 154.382 841.873 127.342C841.856 124.339 841.42 121.354 840.58 118.472V118.472ZM571.841 115.583C581.728 127.676 590.127 140.914 596.859 155.012C606.065 174.271 612.012 194.926 614.459 216.135C601.611 220.909 588.372 225.665 574.74 230.404C561.109 235.142 547.116 239.872 532.76 244.593C532.786 242.739 532.786 240.854 532.786 239C532.836 215.976 531.335 192.975 528.294 170.153C526.382 155.697 523.711 141.353 520.29 127.179C519.661 124.611 519.036 122.075 518.354 119.591C512.15 96.2497 504.09 75.5774 494.559 58.3315C524.681 70.6759 551.246 90.3554 571.841 115.583V115.583ZM464.12 382.882C463.438 384.494 462.73 386.075 462.021 387.634C449.261 415.599 433.135 432.74 419.39 432.74C405.42 432.74 389.03 415.124 376.182 386.432C375.662 385.287 375.148 384.085 374.628 382.882C369.128 369.921 364.473 355.459 360.716 339.882C387.78 333.06 415.496 325.582 443.51 317.585C457.341 313.63 471.027 309.61 484.567 305.527C480.444 334.452 473.501 360.836 464.12 382.882ZM431.604 275.593C405.112 283.15 378.804 290.245 353.029 296.793C350.672 277.62 349.509 258.318 349.544 239C349.544 232.288 349.68 225.64 349.953 219.054C350.565 203.325 352.002 187.638 354.256 172.06C358.419 143.302 365.336 117.05 374.646 95.1134C375.165 93.9112 375.68 92.7089 376.199 91.5638C389.047 62.8852 405.437 45.2561 419.407 45.2561C433.153 45.2561 449.27 62.3963 462.039 90.3616C462.747 91.9206 463.456 93.5016 464.138 95.1134C469.58 107.938 474.209 122.207 477.94 137.599C481.351 151.791 483.935 166.169 485.68 180.661C488.061 200.015 489.237 219.499 489.2 239C489.2 245.575 489.064 252.124 488.817 258.593C470.073 264.376 450.92 270.079 431.604 275.593ZM227.712 260.447C225.984 244.926 226.132 229.252 228.152 213.765C237.054 144.944 281.894 87.2347 343.151 60.3C333.541 78.1185 325.511 99.4602 319.391 123.554C314.235 144.186 310.623 165.173 308.584 186.342C307.04 201.346 306.16 216.98 306.01 233.108C305.984 235.072 305.984 237.036 305.984 239C305.931 261.827 307.401 284.631 310.384 307.262C302.241 309.199 294.164 311.064 286.153 312.855C272.104 316.021 258.301 318.967 244.877 321.698C235.797 302.377 229.997 281.676 227.712 260.447V260.447ZM269.556 361.193C284.516 358.001 299.836 354.581 315.514 350.931C316.465 350.685 317.393 350.491 318.344 350.249C318.674 351.667 319.026 353.059 319.378 354.45C325.507 378.544 333.537 399.886 343.138 417.705C314.434 405.052 289.196 385.669 269.556 361.193V361.193ZM494.572 419.669C504.103 402.423 512.172 381.764 518.368 358.409C523.815 337.944 527.872 315.431 530.248 291.31C543.726 287 556.959 282.643 569.944 278.239C585.16 273.081 599.973 267.896 614.384 262.685C605.76 333.932 558.636 393.443 494.572 419.669Z" fill="#6CBFED"/>
</svg>
